<?xml version="1.0" encoding="utf-8"?>
<!-- Generator: Adobe Illustrator 24.1.0, SVG Export Plug-In . SVG Version: 6.00 Build 0)  -->
<svg version="1.1" id="Ebene_1" xmlns="http://www.w3.org/2000/svg" xmlns:xlink="http://www.w3.org/1999/xlink" x="0px" y="0px"
	 viewBox="0 0 8000 1200" style="enable-background:new 0 0 8000 1200;" xml:space="preserve">
<path d="M2.93,441.33c131.31-36.86,273.42-20.63,392.91,47.45c117.94,67.2,193.57,188.72,308.97,259.97
	c205.87,127.1,461.28,120.18,692.31,106.03c69.22-4.24,214.33-17.89,201.75-122.32c-0.12-0.99-0.64-2.16-1.73-2.35
	c-40.33-7.14-63.94,35.88-59.58,73.64c5.96,51.6,62.15,69,104.9,71.33c87.43,4.76,180.65-19.9,264.54-42.27
	c91.28-24.35,180.74-55.27,270.7-84.26c367.38-118.4,750.01-148.66,1127.9-64.64c88.05,19.58,174.91,44.86,259.83,75.89
	c38.82,14.19,117.08,31.83,140.18,68.21c3.73,5.87,7.86,15.31,8.81,21.36c5.38,34.12-18.74-6.08-18.77-6.37
	c-2.69-27.04,52.9-50.7,71-56.51c39.74-12.75,85.78-12.28,127.18-15.87c46.89-4.06,93.83-7.46,140.8-10.34
	c94.36-5.78,188.84-9.41,283.33-11.8c366.56-9.28,733.65,0.37,1099.83-22.68c395.83-24.92,791.74-91.69,1155.36-261.75
	c1.65-0.77,1.43-3.38,0-4.22c-50.81-29.78-107.58-32.05-160.53-6.68c-1.68,0.8-1.39,3.33,0,4.22
	c221.99,141.4,492.57,27.73,727.65-7.03c291.99-43.18,593.4,10.41,856.16,148.14c2.7,1.42,5.1-2.79,2.38-4.22
	c-266.08-139.47-571.28-192.87-866.74-147.57c-149.15,22.87-295.49,69.71-447.03,73.92c-76.84,2.13-154.99-7.99-225.19-41.95
	c-14.15-6.85-46.27-15.79-21.94-31.09c15.54-9.76,44.51-8.76,62.16-7.29c8.1,0.67,68.83,7.63,57.89,25.53
	c-6.58,10.76-62.88,28.02-70.22,31.13c-582.1,246.53-1224.25,237.48-1842.38,241.99c-156.46,1.14-312.96,2.89-469.32,9.29
	c-80.09,3.28-160.13,7.77-240.06,14.03c-60.99,4.78-133.78,1.01-190.65,27.37c-24.74,11.47-69.35,42.19-52.61,77.17
	c6.77,14.15,21.68,18.15,27.48,1.37c10.93-31.69-24.31-60.61-47.36-70.86c-71.73-31.88-146.29-57.98-221.24-80.43
	c-294.18-88.11-606.58-109.77-909.52-63.34c-159.42,24.44-311.84,72.91-465.17,122.74c-77.89,25.31-156.16,49.81-235.98,67.8
	c-73.06,16.47-168.35,43.67-242.23,18.67c-44.22-14.96-75.12-63.24-45.74-108.08c3.95-6.03,33.01-28.85,42.28-12.91
	c2.6,4.48-1.56,20.25-3.08,24.85c-7.26,22.01-25.7,37.92-44.53,49.18c-56.53,33.8-125.39,32.89-188.56,36.3
	c-145.16,7.82-293.14,9.88-435.93-22.27c-69.64-15.68-137.65-39.9-200.06-75.78c-69.19-39.78-124.82-95.19-180.93-152
	c-96.96-98.18-207.16-167.12-344.4-182.25c-66.1-7.29-132.04-1.17-196.1,16.82C-1.26,437.44-0.02,442.16,2.93,441.33L2.93,441.33z"
	/>
<g>
	<g>
		<path d="M1060.66,87.33c173.6,149.41,368.64,273.02,578.65,364.65c48.71,21.25,98.14,40.82,148.22,58.61
			c42.35,15.04,96.03,38.83,140.69,18.67c22.58-10.19,42.71-35.08,41.1-60.91c-2.33-37.3-43.05-50.45-73.9-55.66
			c-99.12-16.74-201.18,22.75-266.92,97.62c-1.11,1.27-0.9,3.85,1.1,4.18c233.93,38.13,474.39,0.37,685.32-107.74
			c2.32-1.19,1.07-4.55-1.26-4.66c-30.97-1.4-0.71,39.4,12.51,45.86c35.14,17.17,85.95,20.91,124.15,27.11
			c45.11,7.31,90.59,12.29,136.19,15.37c183.97,12.42,368.24-5.92,551.17-24.22c94.8-9.48,189.61-19.15,284.72-25.02
			c43.85-2.71,87.76-4.61,131.69-5.31c49.34-0.78,103.1-4.36,150.67,11.02c45.43,14.69,95.68,62.31,77.53,115.41
			c-8.27,24.2-31.31,37.78-56.03,37.32c-10.05-0.19-30.35-3.25-36.07-13.56c-9.86-17.77,8.49-28.05,20.26-35.75
			c69.73-45.64,167.91-89.47,253.42-74.14c43.36,7.78,82.31,36.83,81.38,84.16c-0.36,18.16-6.14,38.92-19.38,51.94
			c-5,4.92-14.83,13.07-21.84,13.12c-9.1,0.07,21.97-20.72,27.88-25.03c73.38-53.57,154.33-96.79,239.7-127.88
			c43.93-15.99,99.81-36.03,144.9-13.17c21.66,10.98,45.67,38.68,43.5,65.22c-3.74,45.68-64.08,29.32-87.48,14.52
			c-9.88-6.25-22.94-14.79-17.03-29.73c2.39-6.03,26.66-16.46,32.38-19.78c16.41-9.52,33.16-18.46,50.18-26.85
			c43.31-21.35,88.42-38.97,134.72-52.67c44.25-13.09,89.59-22.63,135.38-28.35c45.96-5.74,116.06-20.91,143.89,26.33
			c17.7,30.06,28.46,64.62,45.89,95.17c16.94,29.68,35.98,58.11,56.88,85.13c84.45,109.2,199.23,195.11,328.29,244.33
			c149.92,57.18,315.67,60.38,469.02,14.39c78.96-23.68,154.37-60.22,221.45-108.19c30.55-21.85,59.7-45.92,86.32-72.43
			c13.92-13.86,3.72-10.54,0.62,0.23c-2.52,8.75-5.03,12.93-6.7,21.96c-2.86,15.52-1.3,30.4,2.19,45.59
			c0.18,0.8,0.94,1.57,1.75,1.75c43.87,9.41,88.15,15.57,133.01,17.29c25.63,0.98,52-1.9,77.36,2.71
			c23.14,4.21,45.53,11.03,68.97,14.24c79.55,10.91,161.41,3.64,237.99-20.36c35.53-11.14,69.96-25.84,102.44-44.06
			c7.15-4.01,46.38-34.41,52.15-31.57c4.95,2.43,7.88,33.02,10.77,41.25c18.22,51.87,65.17,86.48,113.4,108.54
			c57.44,26.28,121.12,38.6,183.88,42.81c103.28,6.92,207.58,6.49,310.99,3.21c177.95-5.65,354.81-31.56,532.89-33.26
			c187.64-1.8,383.06,27.63,524.06,162.11c2.33,2.22,5.87-1.31,3.54-3.54c-162.23-154.73-393.41-171.18-606.32-161.27
			c-264.74,12.33-532.05,55.84-797.29,24.82c-109.12-12.76-266.1-60.06-268.15-193.64c-0.03-1.73-2.17-3.34-3.76-2.16
			c-99.05,73.29-220.56,111.29-343.86,106.69c-32.87-1.23-65.64-5.41-97.69-12.84c-26.78-6.21-46.74-8.08-74.64-8.13
			c-35.4-0.07-70.83-2.69-105.86-7.88c-22.82-3.38-46.76-1.12-54.39-29.35c-5.43-20.11,8.21-45.71,18.79-61.66
			c1.58-2.38-1.97-5.05-3.93-3.03c-192.27,198.97-493.3,279.24-757.39,191.78C5189.5,797.16,5076.17,720.85,4989.05,622
			c-42.37-48.08-78.64-101.68-106.89-159.23c-23.87-48.61-30.88-92.22-92.86-92.15c-157.46,0.2-316.14,55.82-446.93,141.29
			c-1.05,0.68-1.72,2.28-0.9,3.42c14.06,19.41,32.44,33.65,55.9,40.02c14.36,3.9,47.84,8.61,60.18-3.36
			c12.89-12.5,7.24-41.27,1.28-54.94c-9.21-21.15-27.67-38.02-49.15-46.07c-64.9-24.3-146.57,17.02-204.79,43.16
			c-77.7,34.88-149.93,80.02-216.29,133.31c-1.72,1.38-0.27,4.32,1.77,4.27c77.87-2.12,72.02-112.38,18.2-144.66
			c-43.33-25.99-98.7-20.56-145.63-8.94c-67.62,16.75-130.09,47.96-185.7,89.67c-0.85,0.64-1.53,1.7-1.15,2.82
			c19.37,56.47,104.11,36.96,113.29-16.59c18.35-107.02-121.77-123.21-193.81-123.43c-278.29-0.87-553.3,51.79-831.24,58.2
			c-68.38,1.58-136.88,0.32-205.05-5.45c-69.84-5.91-148.37-12.07-215.1-35.34c-13.07-4.56-25.45-9.43-34.32-21.42
			c-11.97-16.17,0.67-17.18-20.34-12.63c-13.21,2.86-28.35,13.47-40.63,18.83c-33.04,14.41-66.73,27.27-101.03,38.36
			c-64.72,20.93-131.43,35.87-198.9,44.49c-63.46,8.11-127.66,10.71-191.56,7.65c-17.04-0.82-34.07-2.04-51.05-3.66
			c-14.21-1.36-47.51,0.36-56.48-6.96c-12.1-9.87-9.25-9.54,4.69-22.49c13.14-12.2,27.52-23.09,42.76-32.53
			c52.13-32.29,114.62-47.84,175.8-42.76c42.43,3.52,115.28,25.07,81.97,82.19c-26.38,45.24-81.42,36.39-123.98,23.15
			c-280.84-87.34-544.85-245.34-766.92-436.45C1061.77,81.7,1058.22,85.22,1060.66,87.33L1060.66,87.33z"/>
	</g>
</g>
<g>
	<g>
		<path d="M7745.58,285.1c-51.93-38.09-133.69-28.09-168.42,29.27c-34.72,57.35-5.74,134.4,52.07,162.82c0.76,0.38,1.77,0.53,2.52,0
			c49.97-35.16,54.33-102.99,26.3-154.16c-34.74-63.42-111.08-76.6-174.72-51.03c-35.55,14.29-56.85,37.34-83.73,62.8
			c-23.95,22.68-60.34,10.25-91.61,7.27c-32.09-3.05-64.25-5.4-96.44-7.01c-123.83-6.21-248.19-1.76-371.27,13.19
			c-66.68,8.1-132.99,19.28-198.64,33.52c-29.92,6.49-74.61,9.3-101.2,24.53c-20.4,11.69,13,1.35,20.62-0.79
			c18.14-5.11,36.28-10.22,54.43-15.33c2.84-0.8,2.06-4.67-0.66-4.91c-186.13-16.52-373.41-16.56-559.47,1.11
			c-90.67,8.61-180.96,21.3-270.48,38.06c-19.84,3.71-39.65,7.63-59.42,11.74c-19.96,4.15-49.62,17.11-69.31,14.3
			c-3.38,0.45-6.76,0.91-10.14,1.36c-5.56-17.47-10.69-19.56-15.39-6.29c-6.8,4.75-12.04,15.12-18.34,20.92
			c-16.27,14.95-37.02,24.69-57.85,31.31c-66.61,21.17-143.54,14.62-211.69,4.81c-37.87-5.45-76.42-14.07-109.44-34.27
			c-46.67-28.55-62.37-74.16-81.3-122.73c-39.88-102.32-128.53-159.27-235.37-173.94c-120.71-16.57-242.4,15.24-348.53,72
			c-140.7,75.25-267.33,180.64-421.09,229.62c-37.67,12-80.06,23.77-119.87,22.29c-60.71-2.25-70.1-46.95-97.74-88.65
			c-32.74-49.4-87.85-77.28-144.48-89.58c-68.08-14.79-136.97-6.09-204.9,4.89c-101.61,16.43-194.3,26.83-295.98,4.75
			c-87.65-19.04-172.62-50.65-261.88-62.08c-80.26-10.28-155.02,2.25-229.61,32.66c-75.83,30.92-146.45,73.88-223.73,101.36
			c-37.08,13.18-75.95,22.76-115.53,22.56c-13.3-0.07-53.39,1.46-63.3-9.04c-12.96-13.72,13.4-63.72,18.41-77.93
			c0.57-1.62-0.9-3.08-2.41-3.16c-358.95-19.25-719.07-12.96-1077.06,19.8c-172.73,15.81-344.92,37.67-516.12,65.6
			c-44.87,7.32-89.92,16.71-135.53,17.14c-52.49,0.5-95.71-16.05-140.46-42.03c-65.03-37.76-128.52-58.26-203.66-65.04
			c-162.84-14.7-345.69-25.26-495.2,52.06c-2.86,1.48-0.33,5.79,2.52,4.32c148.35-76.72,330.91-66.13,492.67-51.37
			c46.46,4.24,92.46,11.86,135.72,29.89c39.36,16.4,73.54,42.52,112.67,59.32c64.92,27.88,134.57,16.72,201.97,5.59
			c359.63-59.37,722.96-93.58,1087.45-100.09c100.82-1.8,201.68-1.55,302.49,0.78c51.7,1.19,103.38,2.93,155.05,5.21
			c14.65,0.65,57.81-3.85,66.24,8.3c8.66,12.48-13.24,54.84-18.57,69.96c-0.46,1.31,0.53,2.69,1.75,3.08
			c148.29,47.09,285.11-58.06,415.95-111.48c91.91-37.52,182.31-43.75,279.54-23.67c88.02,18.18,172.95,49.79,262.09,62.85
			c93.69,13.72,183.08-5.7,275.44-19.15c88.17-12.84,184.93-15.13,262.49,36.06c38.65,25.51,54.27,61.23,77.5,98.98
			c15.15,24.61,35.54,38.71,64.47,42.35c70.71,8.89,151.79-24.85,214.57-53.71c154.33-70.95,285.2-192.27,447.89-245.08
			c130.41-42.33,306.22-49.8,411.29,53.9c55.98,55.25,57.35,140.37,111.61,194.58c48.19,48.14,121.98,57.58,186.62,63.15
			c61.57,5.31,129.51,8.01,187.55-17.08c9.04-3.91,97.92-65.91,62.38-75.58c-8.5-2.31-21.1,8.58-21.16,17.09
			c-0.14,20.24,28.23,20.1,41.11,18.86c52.66-5.06,106.41-22.8,158.7-32.06c64.39-11.4,129.17-20.66,194.16-27.82
			c112.89-12.43,226.47-18.5,340.04-18.17c58.05,0.17,116.09,2,174.02,5.53c12.18,0.74,67.73-2.24,76.32,5.81
			c-5.81-5.44-72.11,20.31-81.64,23c-3.09,0.87-1.78,5.68,1.33,4.82c282.82-77.98,578.16-98.55,869.05-60.64
			c0.87,0.11,1.72-0.57,2.16-1.24c39.99-60.75,116.04-106.55,190.57-86.52c61.22,16.45,98.32,82.49,86.47,144.08
			c-7.1,36.94-33.66,73.79-68.41,38.24c-22.49-23.01-34.54-56.61-32.45-88.62c5.62-86.38,110.6-120.44,175.42-72.89
			C7745.65,291.32,7748.15,286.99,7745.58,285.1L7745.58,285.1z"/>
	</g>
</g>
</svg>
