<svg id="Ebene_1" data-name="Ebene 1" xmlns="http://www.w3.org/2000/svg" width="8573.24" height="916.4" viewBox="0 0 8573.24 916.4">
  <path d="M2.93,441.33c131.3-36.86,273.41-20.63,392.9,47.45,118,67.2,193.58,188.72,309,260,205.87,127.11,461.28,120.18,692.3,106,69.22-4.24,214.33-17.9,201.75-122.33a2.49,2.49,0,0,0-1.74-2.35c-40.33-7.14-63.93,35.88-59.57,73.64,6,51.61,62.14,69,104.9,71.33,87.42,4.76,180.65-19.89,264.54-42.27,91.28-24.35,180.74-55.27,270.7-84.26,367.38-118.4,750-148.66,1127.9-64.64a2060.11,2060.11,0,0,1,259.83,75.89C3604.24,774,3682.5,791.64,3705.6,828c3.73,5.87,7.86,15.31,8.81,21.35,5.39,34.12-18.74-6.07-18.77-6.36-2.69-27,52.9-50.7,71-56.51,39.74-12.75,85.78-12.28,127.18-15.87q70.33-6.09,140.8-10.34c94.36-5.78,188.84-9.41,283.33-11.8,366.56-9.28,733.65.37,1099.84-22.68,395.83-24.91,791.73-91.69,1155.35-261.75,1.65-.77,1.43-3.38,0-4.21-50.81-29.78-107.58-32.06-160.53-6.68-1.67.81-1.38,3.33,0,4.22,222,141.4,492.58,27.73,727.65-7,292-43.18,593.41,10.42,856.16,148.15,2.71,1.41,5.1-2.8,2.39-4.22-266.09-139.47-571.29-192.87-866.74-147.57-149.15,22.87-295.49,69.71-447,73.92-76.85,2.13-155-8-225.2-41.95-14.15-6.85-46.27-15.79-21.94-31.09,15.54-9.76,44.52-8.76,62.17-7.29,8.09.68,68.83,7.63,57.89,25.54-6.58,10.76-62.88,28-70.22,31.12-582.1,246.53-1224.26,237.48-1842.38,242-156.46,1.14-313,2.89-469.31,9.29-80.09,3.29-160.14,7.77-240.06,14-61,4.78-133.78,1-190.65,27.37-24.75,11.47-69.35,42.19-52.61,77.18,6.77,14.15,21.69,18.15,27.48,1.37,10.93-31.7-24.31-60.62-47.36-70.86-71.73-31.88-146.29-58-221.24-80.43a2080.26,2080.26,0,0,0-909.52-63.34c-159.42,24.43-311.84,72.91-465.17,122.73-77.89,25.32-156.16,49.82-236,67.81-73.06,16.47-168.36,43.67-242.23,18.67-44.21-15-75.12-63.24-45.74-108.08,4-6,33-28.86,42.29-12.91,2.6,4.48-1.56,20.25-3.08,24.85-7.26,22-25.69,37.92-44.53,49.18-56.54,33.81-125.39,32.89-188.56,36.3C1213.93,859.93,1066,862,923.16,829.84c-69.63-15.68-137.65-39.9-200.06-75.78-69.19-39.78-124.82-95.19-180.93-152-97-98.19-207.16-167.12-344.4-182.25-66.1-7.29-132-1.17-196.1,16.81-2.93.82-1.69,5.54,1.26,4.71Z" transform="translate(163.28 -83.15)" style="fill: #1d1d1b"/>
  <path d="M1060.66,87.33c173.61,149.4,368.64,273,578.65,364.64q73.07,31.88,148.22,58.62c42.35,15,96,38.82,140.69,18.67,22.57-10.19,42.71-35.08,41.1-60.91-2.33-37.3-43-50.45-73.91-55.66-99.12-16.74-201.18,22.75-266.92,97.62-1.11,1.26-.9,3.85,1.1,4.18a1111.47,1111.47,0,0,0,685.33-107.75c2.32-1.19,1.07-4.55-1.27-4.65-31-1.41-.7,39.39,12.52,45.85,35.14,17.17,85.94,20.92,124.14,27.11,45.11,7.31,90.6,12.29,136.19,15.37,184,12.41,368.24-5.92,551.17-24.22,94.8-9.48,189.62-19.15,284.72-25,43.86-2.71,87.76-4.61,131.69-5.31,49.35-.78,103.1-4.36,150.67,11,45.43,14.69,95.69,62.31,77.53,115.41-8.28,24.2-31.32,37.78-56,37.32-10.05-.19-30.34-3.24-36.07-13.56-9.86-17.78,8.5-28,20.26-35.75,69.74-45.64,167.91-89.48,253.42-74.14,43.36,7.78,82.31,36.83,81.38,84.16-.36,18.15-6.14,38.92-19.38,51.94-5,4.92-14.82,13.07-21.84,13.12-9.1.07,22-20.71,27.88-25a969.85,969.85,0,0,1,239.69-127.87c43.93-16,99.81-36,144.9-13.17,21.66,11,45.67,38.68,43.5,65.22-3.74,45.68-64.08,29.32-87.48,14.52-9.88-6.26-22.94-14.79-17-29.74,2.39-6,26.66-16.46,32.38-19.78q24.61-14.28,50.18-26.85a851.38,851.38,0,0,1,270.1-81c46-5.75,116.06-20.92,143.89,26.33,17.7,30.05,28.46,64.62,45.89,95.17a734.33,734.33,0,0,0,56.88,85.14c84.45,109.2,199.23,195.1,328.29,244.32,149.92,57.18,315.67,60.39,469,14.4a754,754,0,0,0,221.45-108.19,696.18,696.18,0,0,0,86.32-72.43c13.92-13.87,3.71-10.54.62.23-2.52,8.75-5,12.93-6.7,22-2.87,15.52-1.3,30.4,2.19,45.59a2.48,2.48,0,0,0,1.75,1.75c43.87,9.4,88.14,15.56,133,17.28,25.63,1,52-1.89,77.37,2.72,23.14,4.2,45.53,11,69,14.24,79.55,10.91,161.41,3.64,238-20.36a539.18,539.18,0,0,0,102.44-44.07c7.15-4,46.38-34.4,52.15-31.57,4.94,2.44,7.88,33,10.77,41.26,18.22,51.87,65.17,86.48,113.4,108.54,57.44,26.28,121.12,38.6,183.88,42.8,103.28,6.92,207.57,6.49,311,3.21,178-5.65,354.81-31.56,532.89-33.27,187.64-1.79,383.06,27.63,524.06,162.11,2.33,2.22,5.87-1.31,3.54-3.53C8247,840.57,8015.78,824.13,7802.87,834c-264.74,12.33-532.05,55.84-797.3,24.82-109.12-12.76-266.09-60.07-268.15-193.64,0-1.73-2.17-3.34-3.76-2.16A544.94,544.94,0,0,1,6389.8,769.75a518.73,518.73,0,0,1-97.69-12.85c-26.77-6.2-46.74-8.07-74.64-8.13a732.43,732.43,0,0,1-105.85-7.88c-22.83-3.38-46.76-1.11-54.39-29.35-5.44-20.11,8.21-45.71,18.79-61.65,1.58-2.38-2-5.06-3.93-3-192.27,199-493.3,279.24-757.38,191.77C5189.5,797.16,5076.17,720.85,4989.05,622a724.58,724.58,0,0,1-106.89-159.22c-23.86-48.61-30.87-92.23-92.85-92.15-157.46.2-316.14,55.82-446.93,141.3a2.52,2.52,0,0,0-.9,3.42c14.06,19.4,32.44,33.64,55.9,40,14.36,3.9,47.84,8.62,60.18-3.35,12.89-12.5,7.24-41.27,1.29-54.94-9.21-21.15-27.67-38-49.15-46.07-64.9-24.3-146.57,17-204.79,43.17-77.7,34.88-149.94,80-216.29,133.3-1.73,1.39-.27,4.33,1.76,4.27,77.88-2.12,72-112.38,18.2-144.66-43.33-26-98.69-20.57-145.62-8.94-67.63,16.74-130.09,48-185.7,89.66a2.57,2.57,0,0,0-1.15,2.83c19.36,56.46,104.11,37,113.29-16.6,18.35-107-121.77-123.21-193.81-123.43-278.29-.88-553.3,51.79-831.24,58.2-68.38,1.58-136.88.32-205-5.45-69.84-5.9-148.37-12.07-215.1-35.34-13.07-4.56-25.45-9.43-34.32-21.41-12-16.17.67-17.18-20.34-12.64-13.21,2.86-28.35,13.47-40.63,18.83q-49.56,21.63-101,38.37A1099.83,1099.83,0,0,1,1949,515.64a1097.18,1097.18,0,0,1-191.57,7.65q-25.56-1.21-51-3.66c-14.22-1.36-47.52.36-56.49-7-12.1-9.88-9.25-9.54,4.7-22.49a277.61,277.61,0,0,1,42.76-32.53c52.12-32.29,114.62-47.84,175.79-42.76,42.43,3.52,115.28,25.07,82,82.2-26.38,45.24-81.42,36.38-124,23.15C1550.29,432.9,1286.27,274.91,1064.2,83.79c-2.43-2.09-6,1.43-3.54,3.54Z" transform="translate(163.28 -83.15)" style="fill: #1d1d1b"/>
  <path d="M7745.58,285.1C7693.64,247,7611.89,257,7577.16,314.37s-5.74,134.4,52.07,162.82a2.52,2.52,0,0,0,2.53,0c50-35.15,54.33-103,26.3-154.16-34.74-63.42-111.08-76.61-174.72-51-35.55,14.29-56.85,37.34-83.73,62.8-23.95,22.68-60.35,10.25-91.62,7.27q-48.14-4.57-96.44-7a2175.7,2175.7,0,0,0-371.27,13.19q-100,12.17-198.64,33.52c-29.93,6.49-74.62,9.3-101.21,24.53-20.4,11.68,13,1.35,20.62-.8l54.43-15.33c2.84-.8,2.05-4.67-.67-4.91-186.13-16.52-373.41-16.55-559.47,1.12q-136,12.92-270.47,38.05-29.77,5.58-59.42,11.74c-20,4.16-49.62,17.11-69.31,14.31L5646,451.84q-8.35-26.2-15.39-6.29c-6.8,4.75-12,15.12-18.35,20.91-16.26,15-37,24.69-57.84,31.31-66.61,21.18-143.54,14.62-211.69,4.82-37.87-5.45-76.42-14.08-109.44-34.28-46.67-28.55-62.37-74.15-81.3-122.73-39.88-102.32-128.53-159.28-235.37-173.95-120.71-16.57-242.4,15.24-348.52,72C4427.4,318.88,4300.77,424.27,4147,473.25c-37.67,12-80.06,23.76-119.87,22.29-60.71-2.25-70.1-47-97.73-88.65-32.74-49.4-87.86-77.28-144.48-89.59-68.08-14.79-137-6.08-204.9,4.9-101.62,16.43-194.3,26.83-296,4.75-87.65-19-172.62-50.65-261.88-62.09-80.26-10.28-155,2.25-229.61,32.66-75.83,30.92-146.45,73.89-223.73,101.37-37.07,13.18-75.95,22.76-115.53,22.56-13.3-.07-53.39,1.45-63.31-9-13-13.72,13.4-63.72,18.42-77.93a2.52,2.52,0,0,0-2.41-3.16,7444.38,7444.38,0,0,0-1077.06,19.79q-259.11,23.72-516.12,65.61C768,424,722.9,433.43,677.29,433.86c-52.49.5-95.71-16.05-140.46-42-65-37.75-128.52-58.25-203.66-65-162.84-14.7-345.7-25.26-495.2,52.06-2.86,1.48-.33,5.8,2.53,4.32C-11.15,306.45,171.41,317,333.17,331.79c46.46,4.24,92.46,11.87,135.72,29.89,39.36,16.41,73.54,42.52,112.67,59.33,64.93,27.88,134.57,16.71,202,5.59,359.63-59.37,723-93.58,1087.44-100.1q151.24-2.7,302.5.78,77.54,1.79,155,5.21c14.65.64,57.81-3.85,66.24,8.29,8.66,12.48-13.23,54.85-18.57,70a2.53,2.53,0,0,0,1.74,3.07c148.29,47.09,285.12-58.06,416-111.48,91.91-37.52,182.31-43.75,279.54-23.67,88,18.19,173,49.8,262.09,62.85,93.7,13.72,183.08-5.7,275.44-19.15,88.17-12.83,184.94-15.13,262.49,36.06,38.65,25.51,54.27,61.23,77.5,99,15.15,24.61,35.54,38.7,64.47,42.34,70.71,8.89,151.79-24.84,214.57-53.71C4384.32,375.1,4515.2,253.77,4677.89,201c130.4-42.33,306.21-49.8,411.29,53.91,56,55.25,57.35,140.37,111.61,194.58,48.19,48.14,122,57.58,186.62,63.16,61.58,5.31,129.51,8,187.55-17.09,9-3.9,97.92-65.9,62.38-75.57-8.5-2.32-21.1,8.57-21.16,17.08-.14,20.25,28.23,20.1,41.11,18.86,52.66-5.06,106.41-22.8,158.7-32.06q96.59-17.08,194.16-27.82a3027.47,3027.47,0,0,1,340.05-18.17q87.06.26,174,5.53c12.18.74,67.73-2.23,76.32,5.81-5.81-5.44-72.11,20.32-81.64,23-3.09.87-1.78,5.68,1.33,4.82a2199.43,2199.43,0,0,1,869.06-60.64,2.44,2.44,0,0,0,2.15-1.23c40-60.75,116-106.56,190.58-86.53,61.22,16.46,98.31,82.5,86.47,144.09-7.1,36.94-33.65,73.79-68.41,38.23-22.49-23-34.53-56.61-32.45-88.61,5.63-86.38,110.6-120.44,175.42-72.89,2.6,1.9,5.1-2.43,2.53-4.32Z" transform="translate(163.28 -83.15)" style="fill: #1d1d1b"/>
</svg>
