<?xml version="1.0" encoding="utf-8"?>
<!-- Generator: Adobe Illustrator 24.1.0, SVG Export Plug-In . SVG Version: 6.00 Build 0)  -->
<svg version="1.1" id="Ebene_1" xmlns="http://www.w3.org/2000/svg" xmlns:xlink="http://www.w3.org/1999/xlink" x="0px" y="0px"
	 viewBox="0 0 8000 1200" style="enable-background:new 0 0 8000 1200;" xml:space="preserve">
<style type="text/css">
	.st0{fill:none;stroke:#000000;stroke-width:5.6693;}
</style>
<path d="M2.93,441.33c131.31-36.86,273.42-20.63,392.91,47.45c117.94,67.2,193.57,188.72,308.97,259.97
	c205.87,127.1,461.28,120.18,692.31,106.03c69.22-4.24,214.33-17.89,201.75-122.32c-0.12-0.99-0.64-2.16-1.73-2.35
	c-40.33-7.14-63.94,35.88-59.58,73.64c5.96,51.6,62.15,69,104.9,71.33c87.43,4.76,180.65-19.9,264.54-42.27
	c91.28-24.35,180.74-55.27,270.7-84.26c367.38-118.4,750.01-148.66,1127.9-64.64c88.05,19.58,174.91,44.86,259.83,75.89
	c38.82,14.19,117.08,31.83,140.18,68.21c3.73,5.87,7.86,15.31,8.81,21.36c5.38,34.12-18.74-6.08-18.77-6.37
	c-2.69-27.04,52.9-50.7,71-56.51c39.74-12.75,85.78-12.28,127.18-15.87c46.89-4.06,93.83-7.46,140.8-10.34
	c94.36-5.78,188.84-9.41,283.33-11.8c366.56-9.28,733.65,0.37,1099.83-22.68c395.83-24.92,791.74-91.69,1155.36-261.75
	c1.65-0.77,1.43-3.38,0-4.22c-50.81-29.78-107.58-32.05-160.53-6.68c-1.68,0.8-1.39,3.33,0,4.22
	c221.99,141.4,492.57,27.73,727.65-7.03c291.99-43.18,593.4,10.41,856.16,148.14c2.7,1.42,5.1-2.79,2.38-4.22
	c-266.08-139.47-571.28-192.87-866.74-147.57c-149.15,22.87-295.49,69.71-447.03,73.92c-76.84,2.13-154.99-7.99-225.19-41.95
	c-14.15-6.85-46.27-15.79-21.94-31.09c15.54-9.76,44.51-8.76,62.16-7.29c8.1,0.67,68.83,7.63,57.89,25.53
	c-6.58,10.76-62.88,28.02-70.22,31.13c-582.1,246.53-1224.25,237.48-1842.38,241.99c-156.46,1.14-312.96,2.89-469.32,9.29
	c-80.09,3.28-160.13,7.77-240.06,14.03c-60.99,4.78-133.78,1.01-190.65,27.37c-24.74,11.47-69.35,42.19-52.61,77.17
	c6.77,14.15,21.68,18.15,27.48,1.37c10.93-31.69-24.31-60.61-47.36-70.86c-71.73-31.88-146.29-57.98-221.24-80.43
	c-294.18-88.11-606.58-109.77-909.52-63.34c-159.42,24.44-311.84,72.91-465.17,122.74c-77.89,25.31-156.16,49.81-235.98,67.8
	c-73.06,16.47-168.35,43.67-242.23,18.67c-44.22-14.96-75.12-63.24-45.74-108.08c3.95-6.03,33.01-28.85,42.28-12.91
	c2.6,4.48-1.56,20.25-3.08,24.85c-7.26,22.01-25.7,37.92-44.53,49.18c-56.53,33.8-125.39,32.89-188.56,36.3
	c-145.16,7.82-293.14,9.88-435.93-22.27c-69.64-15.68-137.65-39.9-200.06-75.78c-69.19-39.78-124.82-95.19-180.93-152
	c-96.96-98.18-207.16-167.12-344.4-182.25c-66.1-7.29-132.04-1.17-196.1,16.82C-1.26,437.44-0.02,442.16,2.93,441.33L2.93,441.33z"
	/>
<g>
	<path class="st0" d="M1676,795.65l68.84-61l59.98,4.33c24.25-14.7,42.2-33.98,53.84-57.84c11.62-23.86,19.91-58.5,24.83-103.94
		l0.98-10.28c1.31-12.42,1.97-25.98,1.97-40.7c0-80.72-16.86-158.81-50.58-234.31s-68.66-113.25-104.83-113.25
		c-27.31,0-49.84,20.34-67.59,61c-10-3.28-15-9.67-15-19.19c0-20.02,13.33-42.66,39.98-67.92c26.66-25.25,50.61-37.89,71.88-37.89
		c44.16,0,85.44,33.61,123.88,100.8c38.42,67.2,64.02,150.47,76.78,249.78c26.94-98,68-180.94,123.2-248.8
		c55.2-67.84,109.25-101.78,162.16-101.78c20.69,0,40.73,6.59,60.12,19.77l-55.69,76.5c-14.14-8.84-29.42-13.27-45.84-13.27
		c-48.97,0-98.98,39.81-150.08,119.44s-82.23,166.19-93.39,259.7l-0.97,10.3c-4.84,40.88-14.11,70.88-27.83,90
		s-41.58,40.62-83.58,64.5l151.22,6.06l-57.23,58L1676,795.65z"/>
</g>
</svg>
