<?xml version="1.0" encoding="utf-8"?>
<!-- Generator: Adobe Illustrator 24.1.0, SVG Export Plug-In . SVG Version: 6.00 Build 0)  -->
<svg version="1.1" id="Ebene_1" xmlns="http://www.w3.org/2000/svg" xmlns:xlink="http://www.w3.org/1999/xlink" x="0px" y="0px"
	 viewBox="0 0 8000 1200" style="enable-background:new 0 0 8000 1200;" xml:space="preserve">
<style type="text/css">
	.st0{fill:none;stroke:#020203;stroke-width:56.6929;}
</style>
<g id="_x31__horiz_x5F_zigzag_x5F_1">
	<polyline class="st0" points="49.38,55.97 64.5,66.61 79.62,77.25 94.74,87.89 109.86,98.53 124.97,109.17 140.09,119.8 
		155.21,130.44 170.33,141.08 185.45,151.72 200.57,162.36 215.69,173 230.8,183.64 245.92,194.28 261.04,204.92 276.16,215.56 
		291.28,226.2 306.4,236.83 321.52,247.47 336.64,258.11 351.76,268.75 366.87,279.39 381.99,290.03 397.11,300.67 412.23,311.31 
		427.35,321.95 442.47,332.59 457.59,343.22 472.7,353.86 487.82,364.5 502.94,375.14 518.06,385.78 533.18,396.42 545.27,404.93 
		557.37,413.44 569.46,421.95 581.56,430.47 593.65,438.98 605.75,447.49 617.84,456 629.94,464.51 642.03,473.02 654.13,481.53 
		666.22,490.04 678.32,498.56 690.41,507.07 702.51,515.58 714.6,524.09 726.7,532.6 738.79,541.11 750.89,549.62 762.98,558.13 
		775.08,566.65 787.17,575.16 799.27,583.67 811.36,592.18 823.46,600.69 835.55,609.2 847.65,617.71 859.74,626.22 871.84,634.74 
		883.93,643.25 896.03,651.76 908.12,660.27 920.22,668.78 929.29,675.16 938.36,681.55 947.43,687.93 956.51,694.32 965.58,700.7 
		974.65,707.08 983.72,713.47 992.79,719.85 1001.86,726.23 1010.93,732.62 1020,739 1029.07,745.39 1038.15,751.77 1047.22,758.15 
		1056.29,764.54 1065.36,770.92 1074.43,777.3 1083.5,783.69 1092.57,790.07 1101.65,796.46 1110.72,802.84 1119.79,809.22 
		1128.86,815.61 1137.93,821.99 1147,828.37 1156.07,834.76 1165.14,841.14 1174.21,847.53 1183.29,853.91 1192.36,860.29 
		1201.43,866.68 1210.5,873.06 1216.55,877.32 1222.59,881.57 1228.64,885.83 1234.69,890.08 1240.74,894.34 1246.79,898.59 
		1252.83,902.85 1258.88,907.1 1264.93,911.36 1270.97,915.62 1277.02,919.87 1283.07,924.13 1289.12,928.38 1295.17,932.64 
		1301.21,936.89 1307.26,941.15 1313.31,945.41 1319.35,949.66 1325.4,953.92 1331.45,958.17 1337.5,962.43 1343.55,966.68 
		1349.59,970.94 1355.64,975.2 1361.69,979.45 1367.73,983.71 1373.78,987.96 1379.83,992.22 1385.88,996.47 1391.93,1000.73 
		1397.97,1004.98 1404.02,1009.24 1407.04,1011.37 1410.07,1013.5 1413.09,1015.62 1416.11,1017.75 1419.14,1019.88 
		1422.16,1022.01 1425.19,1024.13 1428.21,1026.26 1431.23,1028.39 1434.26,1030.52 1437.28,1032.65 1440.31,1034.77 
		1443.33,1036.9 1446.35,1039.03 1449.38,1041.16 1452.4,1043.28 1455.42,1045.41 1458.45,1047.54 1461.47,1049.67 1464.49,1051.8 
		1467.52,1053.92 1470.54,1056.05 1473.57,1058.18 1476.59,1060.31 1479.61,1062.44 1482.64,1064.56 1485.66,1066.69 
		1488.69,1068.82 1491.71,1070.95 1494.73,1073.07 1497.76,1075.2 1500.78,1077.33 1503.8,1079.46 1506.83,1081.59 1509.85,1083.71 
		1512.88,1085.84 1515.9,1087.97 1518.92,1090.1 1521.95,1092.22 1524.97,1094.35 1527.99,1096.48 1531.02,1098.61 1534.04,1100.74 
		1537.07,1102.86 1540.09,1104.99 1543.11,1107.12 1546.14,1109.25 1549.16,1111.38 1552.18,1113.5 1555.21,1115.63 
		1558.23,1117.76 1561.26,1119.89 1564.28,1122.01 1567.3,1124.14 1570.33,1126.27 1573.35,1128.4 1576.37,1130.53 1579.4,1132.65 
		1582.42,1134.78 1585.45,1136.91 1588.47,1139.04 1591.49,1141.16 1594.52,1143.29 1597.54,1145.42 1604.18,1143.3 
		1610.82,1141.18 1617.45,1139.07 1624.09,1136.95 1630.73,1134.83 1637.37,1132.71 1644.01,1130.6 1650.65,1128.48 
		1657.28,1126.36 1663.92,1124.24 1670.56,1122.12 1677.2,1120.01 1683.84,1117.89 1690.47,1115.77 1697.11,1113.65 
		1703.75,1111.54 1710.39,1109.42 1717.03,1107.3 1723.66,1105.18 1730.3,1103.06 1736.94,1100.95 1743.58,1098.83 1750.22,1096.71 
		1756.85,1094.59 1763.49,1092.47 1770.13,1090.36 1776.77,1088.24 1783.41,1086.12 1790.05,1084 1796.68,1081.89 1803.32,1079.77 
		1809.96,1077.65 1823.24,1073.41 1836.51,1069.18 1849.79,1064.94 1863.06,1060.71 1876.34,1056.47 1889.62,1052.24 1902.89,1048 
		1916.17,1043.77 1929.44,1039.53 1942.72,1035.3 1956,1031.06 1969.27,1026.83 1982.55,1022.59 1995.82,1018.36 2009.1,1014.12 
		2022.38,1009.89 2035.65,1005.65 2048.93,1001.41 2062.2,997.18 2075.48,992.94 2088.75,988.71 2102.03,984.47 2115.31,980.24 
		2128.58,976 2141.86,971.77 2155.13,967.53 2168.41,963.3 2181.69,959.06 2194.96,954.83 2208.24,950.59 2221.51,946.36 
		2234.79,942.12 2254.7,935.77 2274.62,929.41 2294.53,923.06 2314.45,916.71 2334.36,910.36 2354.27,904 2374.19,897.65 
		2394.1,891.3 2414.02,884.94 2433.93,878.59 2453.84,872.24 2473.76,865.89 2493.67,859.53 2513.59,853.18 2533.5,846.83 
		2553.42,840.47 2573.33,834.12 2593.24,827.77 2613.16,821.42 2633.07,815.06 2652.99,808.71 2672.9,802.36 2692.81,796.01 
		2712.73,789.65 2732.64,783.3 2752.56,776.95 2772.47,770.59 2792.38,764.24 2812.3,757.89 2832.21,751.54 2852.13,745.18 
		2872.04,738.83 2898.59,730.36 2925.14,721.89 2951.7,713.42 2978.25,704.95 3004.8,696.48 3031.35,688.01 3057.9,679.54 
		3084.46,671.07 3111.01,662.59 3137.56,654.12 3164.11,645.65 3190.66,637.18 3217.21,628.71 3243.77,620.24 3270.32,611.77 
		3296.87,603.3 3323.42,594.83 3349.97,586.36 3376.53,577.89 3403.08,569.42 3429.63,560.95 3456.18,552.48 3482.73,544.01 
		3509.28,535.53 3535.84,527.06 3562.39,518.59 3588.94,510.12 3615.49,501.65 3642.04,493.18 3668.6,484.71 3695.15,476.24 
		3721.7,467.77 3754.89,457.18 3788.08,446.59 3821.27,436.01 3854.46,425.42 3887.65,414.83 3920.84,404.24 3954.03,393.65 
		3987.22,383.07 4020.41,372.48 4053.6,361.89 4086.79,351.3 4119.98,340.71 4153.17,330.12 4186.36,319.54 4219.55,308.95 
		4252.74,298.36 4285.93,287.77 4319.12,277.18 4352.31,266.6 4385.5,256.01 4418.69,245.42 4451.88,234.83 4485.07,224.24 
		4518.26,213.65 4551.45,203.07 4584.64,192.48 4617.83,181.89 4651.02,171.3 4684.21,160.71 4717.4,150.13 4750.59,139.54 
		4783.78,128.95 4790.42,126.83 4797.06,124.71 4803.69,122.6 4810.33,120.48 4816.97,118.36 4823.61,116.24 4830.25,114.13 
		4836.88,112.01 4843.52,109.89 4850.16,107.77 4856.8,105.65 4863.44,103.54 4870.08,101.42 4876.71,99.3 4883.35,97.18 
		4889.99,95.07 4896.63,92.95 4903.27,90.83 4909.9,88.71 4916.54,86.59 4923.18,84.48 4929.82,82.36 4936.46,80.24 4943.1,78.12 
		4949.73,76 4956.37,73.89 4963.01,71.77 4969.65,69.65 4976.29,67.53 4982.92,65.42 4989.56,63.3 4996.2,61.18 5024.91,71.67 
		5053.62,82.15 5082.33,92.64 5111.04,103.13 5139.75,113.61 5168.46,124.1 5197.17,134.59 5225.88,145.07 5254.59,155.56 
		5283.3,166.05 5312.01,176.53 5340.72,187.02 5369.43,197.51 5398.14,207.99 5426.85,218.48 5455.57,228.96 5484.28,239.45 
		5512.99,249.94 5541.7,260.42 5570.41,270.91 5599.12,281.4 5627.83,291.88 5656.54,302.37 5685.25,312.86 5713.96,323.34 
		5742.67,333.83 5771.38,344.32 5800.09,354.8 5828.8,365.29 5857.51,375.78 5886.22,386.26 5914.93,396.75 5937.9,405.14 
		5960.87,413.53 5983.83,421.92 6006.8,430.31 6029.77,438.7 6052.74,447.08 6075.71,455.47 6098.68,463.86 6121.64,472.25 
		6144.61,480.64 6167.58,489.03 6190.55,497.42 6213.52,505.81 6236.48,514.2 6259.45,522.59 6282.42,530.97 6305.39,539.36 
		6328.36,547.75 6351.32,556.14 6374.29,564.53 6397.26,572.92 6420.23,581.31 6443.2,589.7 6466.17,598.09 6489.13,606.48 
		6512.1,614.87 6535.07,623.25 6558.04,631.64 6581.01,640.03 6603.97,648.42 6626.94,656.81 6649.91,665.2 6667.14,671.49 
		6684.36,677.78 6701.59,684.08 6718.81,690.37 6736.04,696.66 6753.27,702.95 6770.49,709.24 6787.72,715.54 6804.95,721.83 
		6822.17,728.12 6839.4,734.41 6856.62,740.7 6873.85,746.99 6891.08,753.29 6908.3,759.58 6925.53,765.87 6942.76,772.16 
		6959.98,778.45 6977.21,784.75 6994.44,791.04 7011.66,797.33 7028.89,803.62 7046.11,809.91 7063.34,816.2 7080.57,822.5 
		7097.79,828.79 7115.02,835.08 7132.25,841.37 7149.47,847.66 7166.7,853.96 7183.92,860.25 7201.15,866.54 7212.63,870.73 
		7224.12,874.93 7235.6,879.12 7247.09,883.32 7258.57,887.51 7270.05,891.71 7281.54,895.9 7293.02,900.1 7304.51,904.29 
		7315.99,908.49 7327.47,912.68 7338.96,916.88 7350.44,921.07 7361.93,925.27 7373.41,929.46 7384.9,933.66 7396.38,937.85 
		7407.86,942.04 7419.35,946.24 7430.83,950.43 7442.32,954.63 7453.8,958.82 7465.28,963.02 7476.77,967.21 7488.25,971.41 
		7499.74,975.6 7511.22,979.8 7522.7,983.99 7534.19,988.19 7545.67,992.38 7557.16,996.58 7568.64,1000.77 7574.38,1002.87 
		7580.12,1004.96 7585.87,1007.06 7591.61,1009.16 7597.35,1011.26 7603.09,1013.35 7608.84,1015.45 7614.58,1017.55 
		7620.32,1019.64 7626.06,1021.74 7631.8,1023.84 7637.55,1025.94 7643.29,1028.03 7649.03,1030.13 7654.77,1032.23 
		7660.52,1034.32 7666.26,1036.42 7672,1038.52 7677.74,1040.62 7683.48,1042.71 7689.23,1044.81 7694.97,1046.91 7700.71,1049.01 
		7706.45,1051.1 7712.19,1053.2 7717.94,1055.3 7723.68,1057.39 7729.42,1059.49 7735.16,1061.59 7740.91,1063.69 7746.65,1065.78 
		7752.39,1067.88 7758.13,1069.98 7763.87,1072.07 7769.62,1074.17 7775.36,1076.27 7781.1,1078.37 7786.84,1080.46 
		7792.59,1082.56 7798.33,1084.66 7804.07,1086.75 7809.81,1088.85 7815.55,1090.95 7821.3,1093.05 7827.04,1095.14 
		7832.78,1097.24 7838.52,1099.34 7844.27,1101.44 7850.01,1103.53 7855.75,1105.63 7861.49,1107.73 7867.23,1109.82 
		7872.98,1111.92 7878.72,1114.02 7884.46,1116.12 7890.2,1118.21 7895.94,1120.31 7901.69,1122.41 7907.43,1124.5 7913.17,1126.6 
		7918.91,1128.7 7924.66,1130.8 7930.4,1132.89 7936.14,1134.99 	"/>
</g>
</svg>
