<?xml version="1.0" encoding="utf-8"?>
<!-- Generator: Adobe Illustrator 24.1.0, SVG Export Plug-In . SVG Version: 6.00 Build 0)  -->
<svg version="1.1" id="Ebene_1" xmlns="http://www.w3.org/2000/svg" xmlns:xlink="http://www.w3.org/1999/xlink" x="0px" y="0px"
	 viewBox="0 0 8000 1200" style="enable-background:new 0 0 8000 1200;" xml:space="preserve">
<style type="text/css">
	.st0{fill:none;stroke:#020203;stroke-width:56.6929;stroke-miterlimit:1;}
</style>
<g id="_x31__horiz_x5F_zigzag_x5F_3">
	<polyline class="st0" points="7943.29,1145.42 7932.2,1077.38 7898.92,873.26 7865.65,669.14 7843.46,533.07 7832.37,465.03 
		7821.28,396.99 7810.19,328.95 7799.09,260.91 7788,192.87 7776.91,124.83 7765.82,56.79 7753.91,124.83 7742.01,192.87 
		7730.11,260.91 7718.21,328.95 7706.31,396.99 7694.4,465.03 7670.6,601.1 7634.89,805.22 7587.28,1077.38 7575.38,1145.42 
		7563.48,1077.38 7515.87,805.22 7480.16,601.1 7456.35,465.03 7444.45,396.99 7432.55,328.95 7420.65,260.91 7408.75,192.87 
		7396.84,124.83 7384.94,56.79 7373.85,124.83 7362.76,192.87 7351.66,260.91 7340.57,328.95 7329.48,396.99 7318.39,465.03 
		7307.3,533.07 7285.11,669.14 7251.84,873.26 7218.56,1077.38 7207.47,1145.42 7196.38,1077.38 7163.1,873.26 7129.82,669.14 
		7107.64,533.07 7096.55,465.03 7085.46,396.99 7074.36,328.95 7063.27,260.91 7052.18,192.87 7041.09,124.83 7029.99,56.79 
		7018.09,124.83 7006.19,192.87 6994.29,260.91 6982.39,328.95 6970.48,396.99 6958.58,465.03 6934.78,601.1 6899.07,805.22 
		6851.46,1077.38 6839.56,1145.42 6827.65,1077.38 6780.04,805.22 6744.34,601.1 6720.53,465.03 6708.63,396.99 6696.73,328.95 
		6684.83,260.91 6672.92,192.87 6661.02,124.83 6649.12,56.79 6638.03,124.83 6626.93,192.87 6615.84,260.91 6604.75,328.95 
		6593.66,396.99 6582.57,465.03 6571.47,533.07 6549.29,669.14 6516.01,873.26 6482.74,1077.38 6471.65,1145.42 6460.55,1077.38 
		6427.28,873.26 6394,669.14 6371.82,533.07 6360.72,465.03 6349.63,396.99 6338.54,328.95 6327.45,260.91 6316.36,192.87 
		6305.26,124.83 6294.17,56.79 6282.27,124.83 6270.37,192.87 6258.46,260.91 6246.56,328.95 6234.66,396.99 6222.76,465.03 
		6198.95,601.1 6163.25,805.22 6115.64,1077.38 6103.73,1145.42 6091.83,1077.38 6044.22,805.22 6008.51,601.1 5984.71,465.03 
		5972.81,396.99 5960.91,328.95 5949,260.91 5937.1,192.87 5925.2,124.83 5913.3,56.79 5902.2,124.83 5891.11,192.87 
		5880.02,260.91 5868.93,328.95 5857.83,396.99 5846.74,465.03 5835.65,533.07 5813.47,669.14 5780.19,873.26 5746.91,1077.38 
		5735.82,1145.42 5724.73,1077.38 5691.45,873.26 5658.18,669.14 5635.99,533.07 5624.9,465.03 5613.81,396.99 5602.72,328.95 
		5591.63,260.91 5580.53,192.87 5569.44,124.83 5558.35,56.79 5546.45,124.83 5534.54,192.87 5522.64,260.91 5510.74,328.95 
		5498.84,396.99 5486.94,465.03 5463.13,601.1 5427.42,805.22 5379.81,1077.38 5367.91,1145.42 5356.01,1077.38 5308.4,805.22 
		5272.69,601.1 5248.89,465.03 5236.98,396.99 5225.08,328.95 5213.18,260.91 5201.28,192.87 5189.38,124.83 5177.47,56.79 
		5166.38,124.83 5155.29,192.87 5144.2,260.91 5133.1,328.95 5122.01,396.99 5110.92,465.03 5099.83,533.07 5077.64,669.14 
		5044.37,873.26 5011.09,1077.38 5000,1145.42 5000,1145.42 4982.92,1077.38 4931.66,873.26 4880.41,669.14 4846.24,533.06 
		4829.16,465.03 4812.07,396.99 4794.99,328.95 4777.9,260.91 4760.82,192.87 4743.74,124.83 4726.65,56.79 4708.32,124.83 
		4689.99,192.87 4671.65,260.91 4653.32,328.95 4634.99,396.99 4616.66,465.03 4579.99,601.1 4525,805.22 4451.67,1077.38 
		4433.33,1145.42 4415,1077.38 4341.67,805.22 4286.67,601.1 4250.01,465.03 4231.68,396.99 4213.34,328.95 4195.01,260.91 
		4176.68,192.87 4158.35,124.83 4140.02,56.79 4122.93,124.83 4105.85,192.87 4088.76,260.91 4071.68,328.95 4054.59,396.99 
		4037.51,465.03 4020.43,533.06 3986.26,669.14 3935,873.26 3883.75,1077.38 3866.67,1145.42 3849.58,1077.38 3798.33,873.26 
		3747.08,669.14 3712.91,533.06 3695.82,465.03 3678.74,396.99 3661.66,328.95 3644.57,260.91 3627.49,192.87 3610.4,124.83 
		3593.32,56.79 3574.99,124.83 3556.65,192.87 3538.32,260.91 3519.99,328.95 3501.66,396.99 3483.32,465.03 3446.66,601.1 
		3391.66,805.22 3318.33,1077.38 3300,1145.42 3281.67,1077.38 3208.34,805.22 3153.34,601.1 3116.68,465.03 3098.34,396.99 
		3080.01,328.95 3061.68,260.91 3043.35,192.87 3025.01,124.83 3006.68,56.79 2989.6,124.83 2972.51,192.87 2955.43,260.91 
		2938.34,328.95 2921.26,396.99 2904.18,465.03 2887.09,533.06 2852.92,669.14 2801.67,873.26 2750.42,1077.38 2733.33,1145.42 
		2716.25,1077.38 2665,873.26 2613.74,669.14 2579.57,533.06 2562.49,465.03 2545.41,396.99 2528.32,328.95 2511.24,260.91 
		2494.15,192.87 2477.07,124.83 2459.98,56.79 2441.65,124.83 2423.32,192.87 2404.99,260.91 2386.66,328.95 2368.32,396.99 
		2349.99,465.03 2313.33,601.1 2258.33,805.22 2185,1077.38 2166.67,1145.42 2148.33,1077.38 2075,805.22 2020.01,601.1 
		1983.34,465.03 1965.01,396.99 1946.68,328.95 1928.35,260.91 1910.01,192.87 1891.68,124.83 1873.35,56.79 1856.26,124.83 
		1839.18,192.87 1822.1,260.91 1805.01,328.95 1787.93,396.99 1770.84,465.03 1753.76,533.06 1719.59,669.14 1668.34,873.26 
		1617.08,1077.38 1600,1145.42 1600,1145.42 1576.74,1077.38 1506.95,873.26 1437.16,669.14 1390.63,533.06 1367.37,465.03 
		1344.1,396.99 1320.84,328.95 1297.58,260.91 1274.31,192.87 1251.05,124.83 1227.78,56.79 1202.82,124.83 1177.86,192.87 
		1152.9,260.91 1127.93,328.95 1102.97,396.99 1078.01,465.03 1028.08,601.1 953.19,805.22 853.34,1077.38 828.38,1145.42 
		803.41,1077.38 703.56,805.22 628.67,601.1 578.75,465.03 553.78,396.99 528.82,328.95 503.86,260.91 478.9,192.87 453.93,124.83 
		428.97,56.79 405.71,124.83 382.44,192.87 359.18,260.91 335.92,328.95 312.65,396.99 289.39,465.03 266.13,533.06 219.6,669.14 
		149.81,873.26 80.02,1077.38 56.76,1145.42 	"/>
</g>
</svg>
