<?xml version="1.0" encoding="utf-8"?>
<!-- Generator: Adobe Illustrator 24.1.0, SVG Export Plug-In . SVG Version: 6.00 Build 0)  -->
<svg version="1.1" id="Ebene_1" xmlns="http://www.w3.org/2000/svg" xmlns:xlink="http://www.w3.org/1999/xlink" x="0px" y="0px"
	 viewBox="0 0 8000 1200" style="enable-background:new 0 0 8000 1200;" xml:space="preserve">
<style type="text/css">
	.st0{fill:none;stroke:#020203;stroke-width:56.6929;}
</style>
<g id="_x31__horiz_x5F_zigzag_x5F_2">
	<polyline class="st0" points="56.76,1145.42 103.21,1077.38 242.57,873.26 381.92,669.14 474.83,533.06 521.28,465.03 
		567.74,396.99 614.19,328.95 660.64,260.91 707.09,192.87 753.55,124.83 800,56.79 849.85,124.83 899.69,192.87 949.54,260.91 
		999.39,328.95 1049.23,396.99 1099.08,465.03 1198.77,601.1 1348.31,805.22 1547.7,1077.38 1597.54,1145.42 1703.95,1077.38 
		2023.16,873.26 2235.96,737.18 2342.37,669.14 2448.77,601.1 2555.18,533.06 2661.58,465.03 2767.98,396.99 2874.39,328.95 
		2980.79,260.91 3087.19,192.87 3193.6,124.83 3300,56.79 3406.25,124.83 3512.5,192.87 3618.75,260.91 3725,328.95 3831.25,396.99 
		3937.5,465.03 4043.75,533.06 4150,601.1 4256.25,669.14 4362.5,737.18 4575,873.26 4893.75,1077.38 5000,1145.42 5093.75,1077.38 
		5187.5,1009.34 5375,873.26 5562.5,737.18 5656.25,669.14 5750,601.1 5843.75,533.06 5937.5,465.03 6031.25,396.99 6125,328.95 
		6218.75,260.91 6312.5,192.87 6406.25,124.83 6500,56.79 6589.76,124.83 6679.52,192.87 6769.28,260.91 6859.03,328.95 
		6948.79,396.99 7038.55,465.03 7128.31,533.06 7307.83,669.14 7577.1,873.26 7936.14,1145.42 	"/>
</g>
</svg>
