<?xml version="1.0" encoding="utf-8"?>
<!-- Generator: Adobe Illustrator 24.1.0, SVG Export Plug-In . SVG Version: 6.00 Build 0)  -->
<svg version="1.1" id="Ebene_1" xmlns="http://www.w3.org/2000/svg" xmlns:xlink="http://www.w3.org/1999/xlink" x="0px" y="0px"
	 viewBox="0 0 8000 1200" style="enable-background:new 0 0 8000 1200;" xml:space="preserve">
<style type="text/css">
	.st0{fill:none;stroke:#020203;stroke-width:56.6929;}
</style>
<g id="_x31__horizontal">
	<polyline class="st0" points="56.76,629.36 919.34,629.36 1658.71,629.36 2274.84,629.36 2767.75,629.36 3137.43,629.36 
		3383.89,629.36 3507.11,629.36 3630.34,629.36 3753.57,629.36 3876.8,629.36 4000.02,629.36 4123.25,629.36 4246.48,629.36 
		4369.7,629.36 4492.93,629.36 4616.16,629.36 4739.39,629.36 4862.61,629.36 4985.84,629.36 5109.07,629.36 5232.29,629.36 
		5355.52,629.36 5478.75,629.36 5601.98,629.36 5725.2,629.36 5848.43,629.36 5971.66,629.36 6094.88,629.36 6218.11,629.36 
		6464.56,629.36 6834.25,629.36 7327.15,629.36 7943.29,629.36 	"/>
</g>
</svg>
