<?xml version="1.0" encoding="utf-8"?>
<!-- Generator: Adobe Illustrator 24.1.0, SVG Export Plug-In . SVG Version: 6.00 Build 0)  -->
<svg version="1.1" id="Ebene_1" xmlns="http://www.w3.org/2000/svg" xmlns:xlink="http://www.w3.org/1999/xlink" x="0px" y="0px"
	 viewBox="0 0 8000 1200" style="enable-background:new 0 0 8000 1200;" xml:space="preserve">
<style type="text/css">
	.st0{fill:none;stroke:#020203;stroke-width:56.6929;stroke-miterlimit:1;}
</style>
<g id="_x32__diagonal_x5F_2">
	<polyline class="st0" points="56.76,1142.72 242.6,871.24 428.45,599.75 614.29,328.27 800.14,56.79 	"/>
	<polyline class="st0" points="800.14,1142.72 893.06,1006.98 985.98,871.24 1078.9,735.49 1171.83,599.75 1264.75,464.01 
		1357.67,328.27 1450.59,192.53 1543.52,56.79 	"/>
	<polyline class="st0" points="1656.63,1142.72 1707.99,1108.78 1759.34,1074.85 1810.7,1040.91 1862.06,1006.98 1913.41,973.04 
		1964.77,939.11 2016.12,905.17 2067.48,871.24 2118.84,837.3 2170.19,803.36 2221.55,769.43 2272.91,735.49 2324.26,701.56 
		2375.62,667.62 2426.97,633.69 2478.33,599.75 2529.69,565.82 2581.04,531.88 2632.4,497.95 2683.75,464.01 2735.11,430.08 
		2786.47,396.14 2837.82,362.21 2889.18,328.27 2940.53,294.34 2991.89,260.4 3043.25,226.47 3094.6,192.53 3145.96,158.6 
		3197.31,124.66 3248.67,90.73 3300.03,56.79 	"/>
	<polyline class="st0" points="3300.03,1142.72 3351.38,1108.78 3402.74,1074.85 3454.09,1040.91 3505.45,1006.98 3556.81,973.04 
		3608.16,939.11 3659.52,905.17 3710.88,871.24 3762.23,837.3 3813.59,803.36 3864.94,769.43 3916.3,735.49 3967.66,701.56 
		4019.01,667.62 4070.37,633.69 4121.72,599.75 4173.08,565.82 4224.44,531.88 4275.79,497.95 4327.15,464.01 4378.5,430.08 
		4429.86,396.14 4481.22,362.21 4532.57,328.27 4583.93,294.34 4635.28,260.4 4686.64,226.47 4738,192.53 4789.35,158.6 
		4840.71,124.66 4892.06,90.73 4943.42,56.79 	"/>
	<polyline class="st0" points="5056.89,1142.72 5079.44,1125.75 5101.99,1108.78 5124.54,1091.81 5147.09,1074.85 5169.64,1057.88 
		5192.19,1040.91 5214.74,1023.94 5237.29,1006.98 5259.84,990.01 5282.39,973.04 5304.94,956.07 5327.49,939.11 5350.04,922.14 
		5372.59,905.17 5395.14,888.2 5417.69,871.24 5440.24,854.27 5462.79,837.3 5485.34,820.33 5507.89,803.36 5530.44,786.4 
		5552.99,769.43 5575.54,752.46 5598.09,735.49 5620.64,718.53 5643.19,701.56 5665.74,684.59 5688.29,667.62 5710.84,650.66 
		5733.39,633.69 5755.94,616.72 5778.49,599.75 5801.04,582.79 5823.59,565.82 5846.14,548.85 5868.69,531.88 5891.24,514.92 
		5913.79,497.95 5936.34,480.98 5958.89,464.01 5981.44,447.05 6003.99,430.08 6026.54,413.11 6049.09,396.14 6071.64,379.18 
		6094.19,362.21 6116.74,345.24 6139.29,328.27 6161.84,311.3 6184.39,294.34 6206.94,277.37 6229.49,260.4 6252.04,243.43 
		6274.59,226.47 6297.14,209.5 6319.69,192.53 6342.24,175.56 6364.79,158.6 6387.34,141.63 6409.89,124.66 6432.44,107.69 
		6454.99,90.73 6477.54,73.76 6500.09,56.79 	"/>
	<polyline class="st0" points="6500.09,1142.72 6522.64,1125.75 6545.19,1108.78 6567.74,1091.81 6590.29,1074.85 6612.84,1057.88 
		6635.39,1040.91 6657.94,1023.94 6680.49,1006.98 6703.04,990.01 6725.59,973.04 6748.14,956.07 6770.69,939.11 6793.24,922.14 
		6815.79,905.17 6838.34,888.2 6860.89,871.24 6883.44,854.27 6905.99,837.3 6928.54,820.33 6951.09,803.36 6973.64,786.4 
		6996.19,769.43 7018.74,752.46 7041.29,735.49 7063.84,718.53 7086.39,701.56 7108.94,684.59 7131.49,667.62 7154.04,650.66 
		7176.59,633.69 7199.14,616.72 7221.69,599.75 7244.24,582.79 7266.79,565.82 7289.34,548.85 7311.89,531.88 7334.44,514.92 
		7356.99,497.95 7379.54,480.98 7402.09,464.01 7424.64,447.05 7447.19,430.08 7469.74,413.11 7492.29,396.14 7514.84,379.18 
		7537.39,362.21 7559.94,345.24 7582.49,328.27 7605.04,311.3 7627.59,294.34 7650.14,277.37 7672.69,260.4 7695.24,243.43 
		7717.79,226.47 7740.34,209.5 7762.89,192.53 7785.44,175.56 7807.99,158.6 7830.54,141.63 7853.09,124.66 7875.64,107.69 
		7898.19,90.73 7920.74,73.76 7943.29,56.79 	"/>
</g>
</svg>
