<?xml version="1.0" encoding="utf-8"?>
<!-- Generator: Adobe Illustrator 24.1.0, SVG Export Plug-In . SVG Version: 6.00 Build 0)  -->
<svg version="1.1" id="Ebene_1" xmlns="http://www.w3.org/2000/svg" xmlns:xlink="http://www.w3.org/1999/xlink" x="0px" y="0px"
	 viewBox="0 0 8000 1200" style="enable-background:new 0 0 8000 1200;" xml:space="preserve">
<style type="text/css">
	.st0{fill:none;stroke:#020203;stroke-width:56.6929;stroke-miterlimit:1;}
</style>
<g id="_x32__diagonal_x5F_1">
	<polyline class="st0" points="56.76,1142.72 428.45,871.24 800.14,599.75 1171.83,328.27 1543.52,56.79 	"/>
	<polyline class="st0" points="1656.63,1142.72 1759.34,1108.78 1862.06,1074.85 1964.77,1040.91 2067.48,1006.98 2170.19,973.04 
		2272.91,939.11 2375.62,905.17 2478.33,871.24 2581.04,837.3 2683.75,803.36 2786.47,769.43 2889.18,735.49 2991.89,701.56 
		3094.6,667.62 3197.31,633.69 3300.03,599.75 3402.74,565.82 3505.45,531.88 3608.16,497.95 3710.88,464.01 3813.59,430.08 
		3916.3,396.14 4019.01,362.21 4121.72,328.27 4224.44,294.34 4327.15,260.4 4429.86,226.47 4532.57,192.53 4635.28,158.6 
		4738,124.66 4840.71,90.73 4943.42,56.79 	"/>
	<polyline class="st0" points="5056.89,1142.72 5101.99,1125.75 5147.09,1108.78 5192.19,1091.81 5237.29,1074.85 5282.39,1057.88 
		5327.49,1040.91 5372.59,1023.94 5417.69,1006.98 5462.79,990.01 5507.89,973.04 5552.99,956.07 5598.09,939.11 5643.19,922.14 
		5688.29,905.17 5733.39,888.2 5778.49,871.24 5823.59,854.27 5868.69,837.3 5913.79,820.33 5958.89,803.36 6003.99,786.4 
		6049.09,769.43 6094.19,752.46 6139.29,735.49 6184.39,718.53 6229.49,701.56 6274.59,684.59 6319.69,667.62 6364.79,650.66 
		6409.89,633.69 6454.99,616.72 6500.09,599.75 6545.19,582.79 6590.29,565.82 6635.39,548.85 6680.49,531.88 6725.59,514.92 
		6770.69,497.95 6815.79,480.98 6860.89,464.01 6905.99,447.05 6951.09,430.08 6996.19,413.11 7041.29,396.14 7086.39,379.18 
		7131.49,362.21 7176.59,345.24 7221.69,328.27 7266.79,311.3 7311.89,294.34 7356.99,277.37 7402.09,260.4 7447.19,243.43 
		7492.29,226.47 7537.39,209.5 7582.49,192.53 7627.59,175.56 7672.69,158.6 7717.79,141.63 7762.89,124.66 7807.99,107.69 
		7853.09,90.73 7898.19,73.76 7943.29,56.79 	"/>
</g>
</svg>
