<?xml version="1.0" encoding="utf-8"?>
<!-- Generator: Adobe Illustrator 24.1.0, SVG Export Plug-In . SVG Version: 6.00 Build 0)  -->
<svg version="1.1" id="Ebene_1" xmlns="http://www.w3.org/2000/svg" xmlns:xlink="http://www.w3.org/1999/xlink" x="0px" y="0px"
	 viewBox="0 0 8000 1200" style="enable-background:new 0 0 8000 1200;" xml:space="preserve">
<style type="text/css">
	.st0{fill:none;stroke:#000000;}
	.st1{fill:none;stroke:#000000;stroke-miterlimit:10;}
</style>
<polygon class="st0" points="1997.05,348.1 2028.79,379.84 2060.52,411.57 2060.52,538.52 2060.52,665.47 2028.79,697.2 
	1997.05,728.94 1901.84,728.94 1806.63,728.94 1806.63,538.52 1806.63,348.1 1901.84,348.1 "/>
<polygon class="st1" points="2453.64,475.05 2453.64,601.99 2453.64,728.94 2453.64,633.73 2453.64,538.52 2326.69,538.52 
	2199.74,538.52 2199.74,633.73 2199.74,728.94 2199.74,601.99 2199.74,475.05 2263.22,411.57 2326.69,348.1 2390.16,411.57 "/>
<polygon class="st0" points="2592.86,348.1 2592.86,379.84 2592.86,411.57 2656.33,475.05 2719.81,538.52 2719.81,633.73 
	2719.81,728.94 2719.81,633.73 2719.81,538.52 2783.28,475.05 2846.75,411.57 2846.75,379.84 2846.75,348.1 2846.75,379.84 
	2846.75,411.57 2783.28,475.05 2719.81,538.52 2656.33,475.05 2592.86,411.57 2592.86,379.84 "/>
<polygon class="st0" points="3176.4,348.1 3208.13,379.84 3239.87,411.57 3239.87,538.52 3239.87,665.47 3208.13,697.2 
	3176.4,728.94 3081.19,728.94 2985.98,728.94 2985.98,538.52 2985.98,348.1 3081.19,348.1 "/>
<polygon class="st0" points="3569.51,348.1 3601.25,379.84 3632.99,411.57 3632.99,443.31 3632.99,475.05 3601.25,506.78 
	3569.51,538.52 3506.04,538.52 3442.57,538.52 3537.78,633.73 3632.99,728.94 3537.78,633.73 3442.57,538.52 3410.83,538.52 
	3379.09,538.52 3379.09,633.73 3379.09,728.94 3379.09,538.52 3379.09,348.1 3474.3,348.1 "/>
<polygon class="st0" points="3772.21,348.1 3772.21,538.52 3772.21,728.94 3899.15,728.94 4026.1,728.94 3899.15,728.94 
	3772.21,728.94 3772.21,633.73 3772.21,538.52 3867.42,538.52 3962.63,538.52 3867.42,538.52 3772.21,538.52 3772.21,443.31 
	3772.21,348.1 3899.15,348.1 4026.1,348.1 3899.15,348.1 "/>
<polygon class="st0" points="4419.22,475.05 4419.22,601.99 4419.22,728.94 4419.22,633.73 4419.22,538.52 4292.27,538.52 
	4165.32,538.52 4165.32,633.73 4165.32,728.94 4165.32,601.99 4165.32,475.05 4228.8,411.57 4292.27,348.1 4355.74,411.57 "/>
<polygon class="st0" points="4558.44,348.1 4558.44,538.52 4558.44,728.94 4558.44,538.52 4558.44,348.1 4621.91,411.57 
	4685.38,475.05 4685.38,506.78 4685.38,538.52 4685.38,506.78 4685.38,475.05 4748.86,411.57 4812.33,348.1 4812.33,538.52 
	4812.33,728.94 4812.33,538.52 4812.33,348.1 4748.86,411.57 4685.38,475.05 4621.91,411.57 "/>
</svg>
