<?xml version="1.0" encoding="utf-8"?>
<!-- Generator: Adobe Illustrator 24.1.0, SVG Export Plug-In . SVG Version: 6.00 Build 0)  -->
<svg version="1.1" id="Ebene_1" xmlns="http://www.w3.org/2000/svg" xmlns:xlink="http://www.w3.org/1999/xlink" x="0px" y="0px"
	 viewBox="0 0 8000 1200" style="enable-background:new 0 0 8000 1200;" xml:space="preserve">
<style type="text/css">
	.st0{fill:none;stroke:#000000;}
</style>
<g>
	<path class="st0" d="M1719.68,268.08h166.59c123.43,0,242.31,106.01,242.31,250.64c0,143.87-115.1,254.43-258.21,254.43h-150.69
		V268.08z M1869.61,713.33c112.83,0,190.82-86.32,190.82-198.39c0-107.53-86.32-187.04-196.12-187.04h-81.02v385.43H1869.61z"/>
	<path class="st0" d="M2161.9,653.51c0-64.36,55.28-121.91,154.47-121.91c37.1,0,77.24,10.6,109.8,40.13v-37.1
		c0-58.31-58.31-71.18-106.77-71.18c-33.32,0-64.36,7.57-98.44,24.23l-26.5-51.49c54.52-21.96,96.17-27.26,128.73-27.26
		c85.57,0,164.32,36.35,164.32,121.16v243.07h-56.79V736.8c-31.8,32.56-66.64,46.19-113.58,46.19
		C2230.06,782.99,2161.9,733.02,2161.9,653.51z M2428.45,656.54c0-34.83-25.75-71.18-100.71-71.18c-74.97,0-99.95,36.35-99.95,71.18
		c0,34.83,24.99,71.18,99.95,71.18C2402.7,727.71,2428.45,691.37,2428.45,656.54z"/>
	<path class="st0" d="M2660.91,772.39l-145.39-349.84h77.24l1.51,4.54l101.47,274.87l103.74-279.42h74.97l-3.79,9.09L2664.7,932.92
		h-74.21L2660.91,772.39z"/>
	<path class="st0" d="M2915.34,268.08h166.59c123.43,0,242.31,106.01,242.31,250.64c0,143.87-115.1,254.43-258.21,254.43h-150.69
		V268.08z M3065.27,713.33c112.83,0,190.82-86.32,190.82-198.39c0-107.53-86.32-187.04-196.12-187.04h-81.02v385.43H3065.27z"/>
	<path class="st0" d="M3384.81,422.55h61.34v46.19h0.76c31.05-55.28,60.58-58.31,112.07-58.31v64.36
		c-9.09-2.27-18.17-3.79-28.02-3.79c-50.73,0-84.81,35.59-84.81,100.71v201.42h-61.34V422.55z"/>
	<path class="st0" d="M3581.69,596.71c0-101.47,72.69-186.28,184.01-186.28c109.8,0,186.28,84.05,186.28,209.75h-304.41
		c9.09,60.58,58.31,105.25,127.22,105.25c43.92,0,83.29-20.45,114.34-57.55l47.71,37.86c-48.46,53.01-98.44,77.24-161.29,77.24
		C3649.08,782.99,3581.69,691.37,3581.69,596.71z M3882.31,569.45c-6.06-58.31-53.76-101.47-117.37-101.47
		c-74.97,0-111.31,53.01-117.37,101.47H3882.31z"/>
	<path class="st0" d="M4004.97,653.51c0-64.36,55.28-121.91,154.47-121.91c37.1,0,77.24,10.6,109.8,40.13v-37.1
		c0-58.31-58.31-71.18-106.77-71.18c-33.32,0-64.36,7.57-98.44,24.23l-26.5-51.49c54.52-21.96,96.17-27.26,128.73-27.26
		c85.57,0,164.32,36.35,164.32,121.16v243.07h-56.79V736.8c-31.8,32.56-66.64,46.19-113.58,46.19
		C4073.12,782.99,4004.97,733.02,4004.97,653.51z M4271.52,656.54c0-34.83-25.75-71.18-100.71-71.18
		c-74.97,0-99.95,36.35-99.95,71.18c0,34.83,24.99,71.18,99.95,71.18C4245.77,727.71,4271.52,691.37,4271.52,656.54z"/>
	<path class="st0" d="M4397.21,422.55h64.36v35.59h1.51c18.93-25.75,47.71-47.71,97.68-47.71c43.16,0,77.24,20.45,95.41,58.31h1.51
		c18.17-31.8,45.43-58.31,103.74-58.31c76.48,0,118.89,42.4,118.89,120.4v242.31h-65.12V545.22c0-53.76-18.93-74.21-68.91-74.21
		c-37.1,0-74.97,32.56-74.97,87.84v214.3h-65.12V545.22c0-53.76-18.17-74.21-66.64-74.21c-44.68,0-77.24,37.86-77.24,87.84v214.3
		h-65.12V422.55z"/>
</g>
<rect x="1600" class="st0" width="3400" height="1200"/>
</svg>
