<?xml version="1.0" encoding="utf-8"?>
<!-- Generator: Adobe Illustrator 24.1.0, SVG Export Plug-In . SVG Version: 6.00 Build 0)  -->
<svg version="1.1" id="Ebene_1" xmlns="http://www.w3.org/2000/svg" xmlns:xlink="http://www.w3.org/1999/xlink" x="0px" y="0px"
	 viewBox="0 0 8000 1200" style="enable-background:new 0 0 8000 1200;" xml:space="preserve">
<style type="text/css">
	.st0{fill:none;stroke:#000000;}
	.st1{fill:none;stroke:#000000;stroke-miterlimit:10;}
</style>
<polygon class="st0" points="1997.05,348.1 2060.52,411.57 2060.52,665.47 1997.05,728.94 1806.63,728.94 1806.63,348.1 "/>
<polygon class="st1" points="2453.64,475.05 2453.64,728.94 2453.64,538.52 2199.74,538.52 2199.74,728.94 2199.74,475.05 
	2326.69,348.1 "/>
<polygon class="st0" points="2592.86,348.1 2592.86,411.57 2719.81,538.52 2719.81,728.94 2719.81,538.52 2846.75,411.57 
	2846.75,348.1 2846.75,411.57 2719.81,538.52 2592.86,411.57 "/>
<polygon class="st0" points="3176.4,348.1 3239.87,411.57 3239.87,665.47 3176.4,728.94 2985.98,728.94 2985.98,348.1 "/>
<polygon class="st0" points="3569.51,348.1 3632.99,411.57 3632.99,475.05 3569.51,538.52 3442.57,538.52 3632.99,728.94 
	3442.57,538.52 3379.09,538.52 3379.09,728.94 3379.09,348.1 "/>
<polygon class="st0" points="3772.21,348.1 3772.21,728.94 4026.1,728.94 3772.21,728.94 3772.21,538.52 3962.63,538.52 
	3772.21,538.52 3772.21,348.1 4026.1,348.1 "/>
<polygon class="st0" points="4419.22,475.05 4419.22,728.94 4419.22,538.52 4165.32,538.52 4165.32,728.94 4165.32,475.05 
	4292.27,348.1 "/>
<polygon class="st0" points="4558.44,348.1 4558.44,728.94 4558.44,348.1 4685.38,475.05 4685.38,538.52 4685.38,475.05 
	4812.33,348.1 4812.33,728.94 4812.33,348.1 4685.38,475.05 "/>
</svg>
