<?xml version="1.0" encoding="utf-8"?>
<!-- Generator: Adobe Illustrator 24.1.0, SVG Export Plug-In . SVG Version: 6.00 Build 0)  -->
<svg version="1.1" id="Ebene_1" xmlns="http://www.w3.org/2000/svg" xmlns:xlink="http://www.w3.org/1999/xlink" x="0px" y="0px"
	 viewBox="0 0 8000 1200" style="enable-background:new 0 0 8000 1200;" xml:space="preserve">
<style type="text/css">
	.st0{fill:none;stroke:#000000;}
	.st1{fill:none;stroke:#000000;stroke-miterlimit:10;}
</style>
<polygon class="st0" points="1997.05,348.1 2004.98,356.03 2012.92,363.97 2020.85,371.9 2028.79,379.84 2036.72,387.77 
	2044.65,395.7 2052.59,403.64 2060.52,411.57 2060.52,443.31 2060.52,475.05 2060.52,506.78 2060.52,538.52 2060.52,570.26 
	2060.52,601.99 2060.52,633.73 2060.52,665.47 2052.59,673.4 2044.65,681.33 2036.72,689.27 2028.79,697.2 2020.85,705.14 
	2012.92,713.07 2004.98,721.01 1997.05,728.94 1973.25,728.94 1949.44,728.94 1925.64,728.94 1901.84,728.94 1878.04,728.94 
	1854.23,728.94 1830.43,728.94 1806.63,728.94 1806.63,681.33 1806.63,633.73 1806.63,586.12 1806.63,538.52 1806.63,490.91 
	1806.63,443.31 1806.63,395.7 1806.63,348.1 1830.43,348.1 1854.23,348.1 1878.04,348.1 1901.84,348.1 1925.64,348.1 1949.44,348.1 
	1973.25,348.1 "/>
<polygon class="st1" points="2453.64,475.05 2453.64,506.78 2453.64,538.52 2453.64,570.26 2453.64,601.99 2453.64,633.73 
	2453.64,665.47 2453.64,697.2 2453.64,728.94 2453.64,705.14 2453.64,681.33 2453.64,657.53 2453.64,633.73 2453.64,609.93 
	2453.64,586.12 2453.64,562.32 2453.64,538.52 2421.9,538.52 2390.16,538.52 2358.43,538.52 2326.69,538.52 2294.95,538.52 
	2263.22,538.52 2231.48,538.52 2199.74,538.52 2199.74,562.32 2199.74,586.12 2199.74,609.93 2199.74,633.73 2199.74,657.53 
	2199.74,681.33 2199.74,705.14 2199.74,728.94 2199.74,697.2 2199.74,665.47 2199.74,633.73 2199.74,601.99 2199.74,570.26 
	2199.74,538.52 2199.74,506.78 2199.74,475.05 2215.61,459.18 2231.48,443.31 2247.35,427.44 2263.22,411.57 2279.09,395.7 
	2294.95,379.84 2310.82,363.97 2326.69,348.1 2342.56,363.97 2358.43,379.84 2374.3,395.7 2390.16,411.57 2406.03,427.44 
	2421.9,443.31 2437.77,459.18 "/>
<polygon class="st0" points="2592.86,348.1 2592.86,356.03 2592.86,363.97 2592.86,371.9 2592.86,379.84 2592.86,387.77 
	2592.86,395.7 2592.86,403.64 2592.86,411.57 2608.73,427.44 2624.6,443.31 2640.47,459.18 2656.33,475.05 2672.2,490.91 
	2688.07,506.78 2703.94,522.65 2719.81,538.52 2719.81,562.32 2719.81,586.12 2719.81,609.93 2719.81,633.73 2719.81,657.53 
	2719.81,681.33 2719.81,705.14 2719.81,728.94 2719.81,705.14 2719.81,681.33 2719.81,657.53 2719.81,633.73 2719.81,609.93 
	2719.81,586.12 2719.81,562.32 2719.81,538.52 2735.68,522.65 2751.54,506.78 2767.41,490.91 2783.28,475.05 2799.15,459.18 
	2815.02,443.31 2830.89,427.44 2846.75,411.57 2846.75,403.64 2846.75,395.7 2846.75,387.77 2846.75,379.84 2846.75,371.9 
	2846.75,363.97 2846.75,356.03 2846.75,348.1 2846.75,356.03 2846.75,363.97 2846.75,371.9 2846.75,379.84 2846.75,387.77 
	2846.75,395.7 2846.75,403.64 2846.75,411.57 2830.89,427.44 2815.02,443.31 2799.15,459.18 2783.28,475.05 2767.41,490.91 
	2751.54,506.78 2735.68,522.65 2719.81,538.52 2703.94,522.65 2688.07,506.78 2672.2,490.91 2656.33,475.05 2640.47,459.18 
	2624.6,443.31 2608.73,427.44 2592.86,411.57 2592.86,403.64 2592.86,395.7 2592.86,387.77 2592.86,379.84 2592.86,371.9 
	2592.86,363.97 2592.86,356.03 "/>
<polygon class="st0" points="3176.4,348.1 3184.33,356.03 3192.26,363.97 3200.2,371.9 3208.13,379.84 3216.07,387.77 3224,395.7 
	3231.94,403.64 3239.87,411.57 3239.87,443.31 3239.87,475.05 3239.87,506.78 3239.87,538.52 3239.87,570.26 3239.87,601.99 
	3239.87,633.73 3239.87,665.47 3231.94,673.4 3224,681.33 3216.07,689.27 3208.13,697.2 3200.2,705.14 3192.26,713.07 
	3184.33,721.01 3176.4,728.94 3152.59,728.94 3128.79,728.94 3104.99,728.94 3081.19,728.94 3057.38,728.94 3033.58,728.94 
	3009.78,728.94 2985.98,728.94 2985.98,681.33 2985.98,633.73 2985.98,586.12 2985.98,538.52 2985.98,490.91 2985.98,443.31 
	2985.98,395.7 2985.98,348.1 3009.78,348.1 3033.58,348.1 3057.38,348.1 3081.19,348.1 3104.99,348.1 3128.79,348.1 3152.59,348.1 
	"/>
<polygon class="st0" points="3569.51,348.1 3577.45,356.03 3585.38,363.97 3593.31,371.9 3601.25,379.84 3609.18,387.77 
	3617.12,395.7 3625.05,403.64 3632.99,411.57 3632.99,419.51 3632.99,427.44 3632.99,435.37 3632.99,443.31 3632.99,451.24 
	3632.99,459.18 3632.99,467.11 3632.99,475.05 3625.05,482.98 3617.12,490.91 3609.18,498.85 3601.25,506.78 3593.31,514.72 
	3585.38,522.65 3577.45,530.58 3569.51,538.52 3553.64,538.52 3537.78,538.52 3521.91,538.52 3506.04,538.52 3490.17,538.52 
	3474.3,538.52 3458.43,538.52 3442.57,538.52 3466.37,562.32 3490.17,586.12 3513.97,609.93 3537.78,633.73 3561.58,657.53 
	3585.38,681.33 3609.18,705.14 3632.99,728.94 3609.18,705.14 3585.38,681.33 3561.58,657.53 3537.78,633.73 3513.97,609.93 
	3490.17,586.12 3466.37,562.32 3442.57,538.52 3434.63,538.52 3426.7,538.52 3418.76,538.52 3410.83,538.52 3402.89,538.52 
	3394.96,538.52 3387.03,538.52 3379.09,538.52 3379.09,562.32 3379.09,586.12 3379.09,609.93 3379.09,633.73 3379.09,657.53 
	3379.09,681.33 3379.09,705.14 3379.09,728.94 3379.09,681.33 3379.09,633.73 3379.09,586.12 3379.09,538.52 3379.09,490.91 
	3379.09,443.31 3379.09,395.7 3379.09,348.1 3402.89,348.1 3426.7,348.1 3450.5,348.1 3474.3,348.1 3498.1,348.1 3521.91,348.1 
	3545.71,348.1 "/>
<polygon class="st0" points="3772.21,348.1 3772.21,395.7 3772.21,443.31 3772.21,490.91 3772.21,538.52 3772.21,586.12 
	3772.21,633.73 3772.21,681.33 3772.21,728.94 3803.94,728.94 3835.68,728.94 3867.42,728.94 3899.15,728.94 3930.89,728.94 
	3962.63,728.94 3994.36,728.94 4026.1,728.94 3994.36,728.94 3962.63,728.94 3930.89,728.94 3899.15,728.94 3867.42,728.94 
	3835.68,728.94 3803.94,728.94 3772.21,728.94 3772.21,705.14 3772.21,681.33 3772.21,657.53 3772.21,633.73 3772.21,609.93 
	3772.21,586.12 3772.21,562.32 3772.21,538.52 3796.01,538.52 3819.81,538.52 3843.61,538.52 3867.42,538.52 3891.22,538.52 
	3915.02,538.52 3938.82,538.52 3962.63,538.52 3938.82,538.52 3915.02,538.52 3891.22,538.52 3867.42,538.52 3843.61,538.52 
	3819.81,538.52 3796.01,538.52 3772.21,538.52 3772.21,514.72 3772.21,490.91 3772.21,467.11 3772.21,443.31 3772.21,419.51 
	3772.21,395.7 3772.21,371.9 3772.21,348.1 3803.94,348.1 3835.68,348.1 3867.42,348.1 3899.15,348.1 3930.89,348.1 3962.63,348.1 
	3994.36,348.1 4026.1,348.1 3994.36,348.1 3962.63,348.1 3930.89,348.1 3899.15,348.1 3867.42,348.1 3835.68,348.1 3803.94,348.1 
	"/>
<polygon class="st0" points="4419.22,475.05 4419.22,506.78 4419.22,538.52 4419.22,570.26 4419.22,601.99 4419.22,633.73 
	4419.22,665.47 4419.22,697.2 4419.22,728.94 4419.22,705.14 4419.22,681.33 4419.22,657.53 4419.22,633.73 4419.22,609.93 
	4419.22,586.12 4419.22,562.32 4419.22,538.52 4387.48,538.52 4355.74,538.52 4324.01,538.52 4292.27,538.52 4260.53,538.52 
	4228.8,538.52 4197.06,538.52 4165.32,538.52 4165.32,562.32 4165.32,586.12 4165.32,609.93 4165.32,633.73 4165.32,657.53 
	4165.32,681.33 4165.32,705.14 4165.32,728.94 4165.32,697.2 4165.32,665.47 4165.32,633.73 4165.32,601.99 4165.32,570.26 
	4165.32,538.52 4165.32,506.78 4165.32,475.05 4181.19,459.18 4197.06,443.31 4212.93,427.44 4228.8,411.57 4244.66,395.7 
	4260.53,379.84 4276.4,363.97 4292.27,348.1 4308.14,363.97 4324.01,379.84 4339.88,395.7 4355.74,411.57 4371.61,427.44 
	4387.48,443.31 4403.35,459.18 "/>
<polygon class="st0" points="4558.44,348.1 4558.44,395.7 4558.44,443.31 4558.44,490.91 4558.44,538.52 4558.44,586.12 
	4558.44,633.73 4558.44,681.33 4558.44,728.94 4558.44,681.33 4558.44,633.73 4558.44,586.12 4558.44,538.52 4558.44,490.91 
	4558.44,443.31 4558.44,395.7 4558.44,348.1 4574.31,363.97 4590.17,379.84 4606.04,395.7 4621.91,411.57 4637.78,427.44 
	4653.65,443.31 4669.52,459.18 4685.38,475.05 4685.38,482.98 4685.38,490.91 4685.38,498.85 4685.38,506.78 4685.38,514.72 
	4685.38,522.65 4685.38,530.58 4685.38,538.52 4685.38,530.58 4685.38,522.65 4685.38,514.72 4685.38,506.78 4685.38,498.85 
	4685.38,490.91 4685.38,482.98 4685.38,475.05 4701.25,459.18 4717.12,443.31 4732.99,427.44 4748.86,411.57 4764.73,395.7 
	4780.6,379.84 4796.46,363.97 4812.33,348.1 4812.33,395.7 4812.33,443.31 4812.33,490.91 4812.33,538.52 4812.33,586.12 
	4812.33,633.73 4812.33,681.33 4812.33,728.94 4812.33,681.33 4812.33,633.73 4812.33,586.12 4812.33,538.52 4812.33,490.91 
	4812.33,443.31 4812.33,395.7 4812.33,348.1 4796.46,363.97 4780.6,379.84 4764.73,395.7 4748.86,411.57 4732.99,427.44 
	4717.12,443.31 4701.25,459.18 4685.38,475.05 4669.52,459.18 4653.65,443.31 4637.78,427.44 4621.91,411.57 4606.04,395.7 
	4590.17,379.84 4574.31,363.97 "/>
</svg>
