<?xml version="1.0" encoding="utf-8"?>
<!-- Generator: Adobe Illustrator 24.1.0, SVG Export Plug-In . SVG Version: 6.00 Build 0)  -->
<svg version="1.1" id="Ebene_1" xmlns="http://www.w3.org/2000/svg" xmlns:xlink="http://www.w3.org/1999/xlink" x="0px" y="0px"
	 viewBox="0 0 8000 1200" style="enable-background:new 0 0 8000 1200;" xml:space="preserve">
<style type="text/css">
	.st0{fill:none;stroke:#000000;stroke-width:56.6929;}
</style>
<polyline class="st0" points="388.84,188.84 401.69,201.69 414.54,214.54 427.39,227.39 440.24,240.24 453.08,253.08 465.93,265.93 
	478.78,278.78 491.63,291.63 504.48,304.48 517.33,317.33 530.18,330.18 543.03,343.03 555.87,355.87 568.72,368.72 581.57,381.57 
	594.42,394.42 607.27,407.27 620.12,420.12 632.97,432.97 645.82,445.82 658.66,458.66 671.51,471.51 684.36,484.36 697.21,497.21 
	710.06,510.06 722.91,522.91 735.76,535.76 748.61,548.61 761.45,561.45 774.3,574.3 787.15,587.15 800,600 812.85,612.85 
	825.7,625.7 838.55,638.55 851.39,651.39 864.24,664.24 877.09,677.09 889.94,689.94 902.79,702.79 915.64,715.64 928.49,728.49 
	941.34,741.34 954.18,754.18 967.03,767.03 979.88,779.88 992.73,792.73 1005.58,805.58 1018.43,818.43 1031.28,831.28 
	1044.13,844.13 1056.97,856.97 1069.82,869.82 1082.67,882.67 1095.52,895.52 1108.37,908.37 1121.22,921.22 1134.07,934.07 
	1146.92,946.92 1159.76,959.76 1172.61,972.61 1185.46,985.46 1198.31,998.31 1211.16,1011.16 "/>
<polyline class="st0" points="1211.16,188.84 1198.31,201.69 1185.46,214.54 1172.61,227.39 1159.76,240.24 1146.92,253.08 
	1134.07,265.93 1121.22,278.78 1108.37,291.63 1095.52,304.48 1082.67,317.33 1069.82,330.18 1056.97,343.03 1044.13,355.87 
	1031.28,368.72 1018.43,381.57 1005.58,394.42 992.73,407.27 979.88,420.12 967.03,432.97 954.18,445.82 941.34,458.66 
	928.49,471.51 915.64,484.36 902.79,497.21 889.94,510.06 877.09,522.91 864.24,535.76 851.39,548.61 838.55,561.45 825.7,574.3 
	812.85,587.15 800,600 787.15,612.85 774.3,625.7 761.45,638.55 748.61,651.39 735.76,664.24 722.91,677.09 710.06,689.94 
	697.21,702.79 684.36,715.64 671.51,728.49 658.66,741.34 645.82,754.18 632.97,767.03 620.12,779.88 607.27,792.73 594.42,805.58 
	581.57,818.43 568.72,831.28 555.87,844.13 543.03,856.97 530.18,869.82 517.33,882.67 504.48,895.52 491.63,908.37 478.78,921.22 
	465.93,934.07 453.08,946.92 440.24,959.76 427.39,972.61 414.54,985.46 401.69,998.31 388.84,1011.16 "/>
<polyline class="st0" points="1833.26,188.84 1846.11,201.69 1858.96,214.54 1871.81,227.39 1884.66,240.24 1897.51,253.08 
	1910.35,265.93 1923.2,278.78 1936.05,291.63 1948.9,304.48 1961.75,317.33 1974.6,330.18 1987.45,343.03 2000.29,355.87 
	2013.14,368.72 2025.99,381.57 2038.84,394.42 2051.69,407.27 2064.54,420.12 2077.39,432.97 2090.24,445.82 2103.08,458.66 
	2115.93,471.51 2128.78,484.36 2141.63,497.21 2154.48,510.06 2167.33,522.91 2180.18,535.76 2193.03,548.61 2205.87,561.45 
	2218.72,574.3 2231.57,587.15 2244.42,600 2257.27,612.85 2270.12,625.7 2282.97,638.55 2295.82,651.39 2308.66,664.24 
	2321.51,677.09 2334.36,689.94 2347.21,702.79 2360.06,715.64 2372.91,728.49 2385.76,741.34 2398.61,754.18 2411.45,767.03 
	2424.3,779.88 2437.15,792.73 2450,805.58 2462.85,818.43 2475.7,831.28 2488.55,844.13 2501.39,856.97 2514.24,869.82 
	2527.09,882.67 2539.94,895.52 2552.79,908.37 2565.64,921.22 2578.49,934.07 2591.34,946.92 2604.18,959.76 2617.03,972.61 
	2629.88,985.46 2642.73,998.31 2655.58,1011.16 "/>
<polyline class="st0" points="2655.58,188.84 2642.73,201.69 2629.88,214.54 2617.03,227.39 2604.18,240.24 2591.34,253.08 
	2578.49,265.93 2565.64,278.78 2552.79,291.63 2539.94,304.48 2527.09,317.33 2514.24,330.18 2501.39,343.03 2488.55,355.87 
	2475.7,368.72 2462.85,381.57 2450,394.42 2437.15,407.27 2424.3,420.12 2411.45,432.97 2398.61,445.82 2385.76,458.66 
	2372.91,471.51 2360.06,484.36 2347.21,497.21 2334.36,510.06 2321.51,522.91 2308.66,535.76 2295.82,548.61 2282.97,561.45 
	2270.12,574.3 2257.27,587.15 2244.42,600 2231.57,612.85 2218.72,625.7 2205.87,638.55 2193.03,651.39 2180.18,664.24 
	2167.33,677.09 2154.48,689.94 2141.63,702.79 2128.78,715.64 2115.93,728.49 2103.08,741.34 2090.24,754.18 2077.39,767.03 
	2064.54,779.88 2051.69,792.73 2038.84,805.58 2025.99,818.43 2013.14,831.28 2000.29,844.13 1987.45,856.97 1974.6,869.82 
	1961.75,882.67 1948.9,895.52 1936.05,908.37 1923.2,921.22 1910.35,934.07 1897.51,946.92 1884.66,959.76 1871.81,972.61 
	1858.96,985.46 1846.11,998.31 1833.26,1011.16 "/>
<polyline class="st0" points="5296.75,188.84 5322.45,214.54 5348.15,240.24 5373.85,265.93 5399.54,291.63 5425.24,317.33 
	5450.94,343.03 5476.64,368.72 5502.33,394.42 5528.03,420.12 5553.73,445.82 5579.43,471.51 5605.12,497.21 5630.82,522.91 
	5656.52,548.61 5682.22,574.3 5707.91,600 5733.61,625.7 5759.31,651.39 5785.01,677.09 5810.7,702.79 5836.4,728.49 5862.1,754.18 
	5887.79,779.88 5913.49,805.58 5939.19,831.28 5964.89,856.97 5990.58,882.67 6016.28,908.37 6041.98,934.07 6067.68,959.76 
	6093.37,985.46 6119.07,1011.16 "/>
<polyline class="st0" points="4822.32,188.84 4796.62,214.54 4770.92,240.24 4745.23,265.93 4719.53,291.63 4693.83,317.33 
	4668.13,343.03 4436.86,574.3 4411.16,600 4385.46,625.7 4359.76,651.39 4334.07,677.09 4308.37,702.79 4282.67,728.49 
	4256.97,754.18 4231.28,779.88 4205.58,805.58 4179.88,831.28 4154.18,856.97 4128.49,882.67 4102.79,908.37 4077.09,934.07 
	4051.39,959.76 4025.7,985.46 4000,1011.16 "/>
<polyline class="st0" points="4298.23,188.84 4285.39,201.69 4272.54,214.54 4259.69,227.39 4246.84,240.24 4233.99,253.08 
	4221.14,265.93 4208.29,278.78 4195.44,291.63 4182.6,304.48 4169.75,317.33 4156.9,330.18 4144.05,343.03 4131.2,355.87 
	4118.35,368.72 4105.5,381.57 4092.66,394.42 4079.81,407.27 4066.96,420.12 4054.11,432.97 4041.26,445.82 4028.41,458.66 
	4015.56,471.51 4002.71,484.36 3989.87,497.21 3977.02,510.06 3964.17,522.91 3951.32,535.76 3938.47,548.61 3925.62,561.45 
	3912.77,574.3 3899.92,587.15 3887.08,600 "/>
<polyline class="st0" points="4865.61,600.25 4852.77,613.09 4839.93,625.93 4827.09,638.77 4814.25,651.61 4801.41,664.45 
	4788.57,677.3 4775.73,690.14 4762.89,702.98 4750.05,715.82 4737.21,728.66 4724.36,741.5 4711.52,754.34 4698.68,767.18 
	4685.84,780.02 4673,792.86 4660.16,805.7 4647.32,818.55 4634.48,831.39 4621.64,844.23 4608.8,857.07 4595.96,869.91 
	4583.11,882.75 4570.27,895.59 4557.43,908.43 4544.59,921.27 4531.75,934.11 4518.91,946.95 4506.07,959.8 4493.23,972.64 
	4480.39,985.48 4467.55,998.32 4454.71,1011.16 "/>
<polygon class="st0" points="6941.39,1011.16 6890,1011.16 6838.6,1011.16 6787.21,1011.16 6735.81,1011.16 6684.42,1011.16 
	6633.02,1011.16 6581.63,1011.16 6530.23,1011.16 6478.84,1011.16 6427.44,1011.16 6376.05,1011.16 6324.65,1011.16 
	6273.26,1011.16 6221.86,1011.16 6170.47,1011.16 6119.07,1011.16 6067.68,1011.16 6016.28,1011.16 5964.89,1011.16 
	5913.49,1011.16 5862.1,1011.16 5810.7,1011.16 5759.31,1011.16 5707.91,1011.16 5656.52,1011.16 5605.12,1011.16 5553.73,1011.16 
	5502.33,1011.16 5450.94,1011.16 5399.54,1011.16 5348.15,1011.16 5296.75,1011.16 5296.75,985.46 5296.75,959.76 5296.75,934.07 
	5296.75,908.37 5296.75,882.67 5296.75,856.97 5296.75,831.28 5296.75,805.58 5296.75,779.88 5296.75,754.18 5296.75,728.49 
	5296.75,702.79 5296.75,677.09 5296.75,651.39 5296.75,625.7 5296.75,600 5296.75,574.3 5296.75,548.61 5296.75,522.91 
	5296.75,497.21 5296.75,471.51 5296.75,445.82 5296.75,420.12 5296.75,394.42 5296.75,368.72 5296.75,343.03 5296.75,317.33 
	5296.75,291.63 5296.75,265.93 5296.75,240.24 5296.75,214.54 5296.75,188.84 5348.15,188.84 5399.54,188.84 5450.94,188.84 
	5502.33,188.84 5553.73,188.84 5605.12,188.84 5656.52,188.84 5707.91,188.84 5759.31,188.84 5810.7,188.84 5862.1,188.84 
	5913.49,188.84 5964.89,188.84 6016.28,188.84 6067.68,188.84 6119.07,188.84 6170.47,188.84 6221.86,188.84 6273.26,188.84 
	6324.65,188.84 6376.05,188.84 6427.44,188.84 6478.84,188.84 6530.23,188.84 6581.63,188.84 6633.02,188.84 6684.42,188.84 
	6735.81,188.84 6787.21,188.84 6838.6,188.84 6890,188.84 6941.39,188.84 6941.39,214.54 6941.39,240.24 6941.39,265.93 
	6941.39,291.63 6941.39,317.33 6941.39,343.03 6941.39,368.72 6941.39,394.42 6941.39,420.12 6941.39,445.82 6941.39,471.51 
	6941.39,497.21 6941.39,522.91 6941.39,548.61 6941.39,574.3 6941.39,600 6941.39,625.7 6941.39,651.39 6941.39,677.09 
	6941.39,702.79 6941.39,728.49 6941.39,754.18 6941.39,779.88 6941.39,805.58 6941.39,831.28 6941.39,856.97 6941.39,882.67 
	6941.39,908.37 6941.39,934.07 6941.39,959.76 6941.39,985.46 "/>
<polygon class="st0" points="7876.11,1011.16 7850.41,1011.16 7824.71,1011.16 7799.01,1011.16 7773.32,1011.16 7747.62,1011.16 
	7721.92,1011.16 7696.23,1011.16 7670.53,1011.16 7644.83,1011.16 7619.13,1011.16 7593.44,1011.16 7567.74,1011.16 
	7542.04,1011.16 7516.34,1011.16 7490.65,1011.16 7464.95,1011.16 7439.25,1011.16 7413.55,1011.16 7387.86,1011.16 
	7362.16,1011.16 7336.46,1011.16 7310.76,1011.16 7285.07,1011.16 7259.37,1011.16 7233.67,1011.16 7207.97,1011.16 
	7182.28,1011.16 7156.58,1011.16 7130.88,1011.16 7105.18,1011.16 7079.49,1011.16 7053.79,1011.16 7053.79,985.46 7053.79,959.76 
	7053.79,934.07 7053.79,908.37 7053.79,882.67 7053.79,856.97 7053.79,831.28 7053.79,805.58 7053.79,779.88 7053.79,754.18 
	7053.79,728.49 7053.79,702.79 7053.79,677.09 7053.79,651.39 7053.79,625.7 7053.79,600 7053.79,574.3 7053.79,548.61 
	7053.79,522.91 7053.79,497.21 7053.79,471.51 7053.79,445.82 7053.79,420.12 7053.79,394.42 7053.79,368.72 7053.79,343.03 
	7053.79,317.33 7053.79,291.63 7053.79,265.93 7053.79,240.24 7053.79,214.54 7053.79,188.84 7079.49,188.84 7105.18,188.84 
	7130.88,188.84 7156.58,188.84 7182.28,188.84 7207.97,188.84 7233.67,188.84 7259.37,188.84 7285.07,188.84 7310.76,188.84 
	7336.46,188.84 7362.16,188.84 7387.86,188.84 7413.55,188.84 7439.25,188.84 7464.95,188.84 7490.65,188.84 7516.34,188.84 
	7542.04,188.84 7567.74,188.84 7593.44,188.84 7619.13,188.84 7644.83,188.84 7670.53,188.84 7696.23,188.84 7721.92,188.84 
	7747.62,188.84 7773.32,188.84 7799.01,188.84 7824.71,188.84 7850.41,188.84 7876.11,188.84 7876.11,214.54 7876.11,240.24 
	7876.11,265.93 7876.11,291.63 7876.11,317.33 7876.11,343.03 7876.11,368.72 7876.11,394.42 7876.11,420.12 7876.11,445.82 
	7876.11,471.51 7876.11,497.21 7876.11,522.91 7876.11,548.61 7876.11,574.3 7876.11,600 7876.11,625.7 7876.11,651.39 
	7876.11,677.09 7876.11,702.79 7876.11,728.49 7876.11,754.18 7876.11,779.88 7876.11,805.58 7876.11,831.28 7876.11,856.97 
	7876.11,882.67 7876.11,908.37 7876.11,934.07 7876.11,959.76 7876.11,985.46 "/>
<path class="st0" d="M7876.11,600c0,28.38-2.88,56.1-8.35,82.86c-5.48,26.77-13.56,52.58-23.96,77.18s-23.13,47.97-37.91,69.84
	c-14.78,21.87-31.6,42.25-50.21,60.85c-18.6,18.6-38.98,35.43-60.85,50.21s-45.25,27.51-69.84,37.91s-50.41,18.48-77.18,23.96
	c-26.77,5.48-54.48,8.35-82.86,8.35s-56.1-2.88-82.86-8.35c-26.77-5.48-52.58-13.55-77.18-23.96s-47.97-23.13-69.84-37.91
	c-21.87-14.78-42.25-31.6-60.85-50.21c-18.6-18.6-35.43-38.98-50.21-60.85s-27.51-45.25-37.91-69.84
	c-10.4-24.6-18.48-50.41-23.96-77.18s-8.35-54.48-8.35-82.86s2.88-56.1,8.35-82.86c5.48-26.77,13.55-52.58,23.96-77.18
	s23.13-47.97,37.91-69.84c14.78-21.87,31.6-42.25,50.21-60.85s38.98-35.43,60.85-50.21s45.25-27.51,69.84-37.91
	c24.6-10.4,50.41-18.48,77.18-23.96s54.48-8.35,82.86-8.35s56.1,2.88,82.86,8.35c26.77,5.48,52.58,13.55,77.18,23.96
	c24.6,10.4,47.97,23.13,69.84,37.91c21.87,14.78,42.25,31.6,60.85,50.21c18.6,18.6,35.43,38.98,50.21,60.85s27.51,45.25,37.91,69.84
	s18.48,50.41,23.96,77.18C7873.23,543.9,7876.11,571.62,7876.11,600z"/>
<path class="st0" d="M2933.66,1011.16v-25.7v-25.7v-25.69v-25.7v-25.7v-25.7v-25.69v-25.7v-25.7v-25.7v-25.69v-25.7v-25.7v-25.7
	V625.7V600v-25.7v-25.69v-25.7v-25.7v-25.7v-25.69v-25.7v-25.7v-25.7v-25.69v-25.7v-25.7v-25.7v-25.69v-25.7v-25.7l25.67,25.68
	l25.68,25.67l25.67,25.67l25.68,25.68l25.67,25.67l25.67,25.68l25.68,25.67l25.67,25.67l25.68,25.68l25.67,25.67l25.68,25.68
	c19.89,19.15,79.91,80.26,102.69,102.69l25.68,25.68l25.67,25.67l25.68,25.68l25.67,25.67l25.67,25.68l25.68,25.67l25.67,25.67
	l25.68,25.68l25.67,25.67l25.67,25.68l25.68,25.67l25.67,25.67l25.68,25.68l25.67,25.67l25.68,25.68l25.67,25.67l25.67,25.68
	l-25.67,0.02l-25.67,0.02l-25.68,0.03l-25.67,0.02l-25.68,0.02l-25.67,0.03l-25.68,0.02l-25.67,0.02l-25.67,0.02l-25.68,0.03
	l-25.67,0.02l-25.68,0.02l-25.67,0.03l-25.67,0.02l-25.68,0.02l-25.67,0.03l-25.68,0.02l-25.67,0.02l-25.68,0.03l-25.67,0.02
	l-25.67,0.02l-25.68,0.03l-25.67,0.02l-25.68,0.02l-25.67,0.03l-25.68,0.02l-25.67,0.02l-25.67,0.03l-25.68,0.02l-25.67,0.02
	l-25.68,0.03L2933.66,1011.16z"/>
</svg>
