<?xml version="1.0" encoding="utf-8"?>
<!-- Generator: Adobe Illustrator 24.1.0, SVG Export Plug-In . SVG Version: 6.00 Build 0)  -->
<svg version="1.1" id="Ebene_1" xmlns="http://www.w3.org/2000/svg" xmlns:xlink="http://www.w3.org/1999/xlink" x="0px" y="0px"
	 viewBox="0 0 8000 1200" style="enable-background:new 0 0 8000 1200;" xml:space="preserve">
<style type="text/css">
	.st0{fill:none;stroke:#000000;stroke-miterlimit:10;}
</style>
<g>
	<path class="st0" d="M1908.4,443.32c-34.99,52.08-123.68,166-151.35,166c-11.39,0-21.16-9.76-21.16-20.34
		c0-5.7,2.44-11.39,8.95-16.27c49.64-39.06,115.55-109.85,163.55-183.9v-1.63l-123.68,0.81c-12.21,0-17.9-9.76-17.9-18.72
		c0-9.76,5.7-18.72,17.9-18.72l122.87,0.81l-1.63-93.58v-0.81c0-13.02,10.58-19.53,21.16-19.53c11.39,0,21.97,6.51,21.97,20.34
		l-1.63,93.58l103.34-0.81c11.39,0,17.09,8.95,17.09,18.72c0,8.95-5.7,18.72-17.09,18.72l-104.15-0.81v48.82
		c0,29.29,2.44,239.23,2.44,239.23c0,12.21-10.58,17.9-21.16,17.9c-11.39,0-21.97-5.7-21.97-17.9L1908.4,443.32z M1752.98,901.43
		c0-6.51,3.25-13.02,11.39-17.09c30.92-15.46,76.49-67.54,88.69-106.6c3.25-8.95,9.76-13.02,17.09-13.02
		c11.39,0,24.41,9.76,24.41,21.16c0,28.48-76.49,136.7-118.8,136.7C1761.93,922.59,1752.98,912.01,1752.98,901.43z M2039.41,545.03
		c-24.41-26.85-54.52-52.89-80.56-68.35c-4.07-2.44-6.51-6.51-6.51-10.58c0-8.95,8.14-17.9,17.9-17.9
		c10.58,0,101.71,53.7,101.71,80.56c0,11.39-8.95,22.78-19.53,22.78C2047.55,551.54,2043.48,549.1,2039.41,545.03z M2243.65,803.79
		c11.39,0,23.6,6.51,23.6,18.71c-1.63,91.13-56.96,109.85-169.25,109.85c-80.56,0-144.03-4.88-144.03-83
		c0-86.25,0-88.69,0.81-104.97c0.81-13.02,11.39-18.72,21.97-18.72s21.16,5.7,21.16,17.9c-0.81,22.78-0.81,52.89-0.81,76.49
		c0,59.4,4.07,74.86,95.2,74.86c93.58,0,128.57-13.83,131.01-73.23C2223.31,808.67,2233.88,803.79,2243.65,803.79z M2137.05,785.07
		c-26.04-30.11-65.91-55.33-96.02-69.98c-6.51-3.25-8.95-8.14-8.95-13.83c0-8.95,8.95-19.53,21.16-19.53
		c17.09,0,121.24,56.96,121.24,87.07c0,13.02-10.58,24.41-21.97,24.41C2146.82,793.21,2141.94,790.77,2137.05,785.07z
		 M2320.14,673.6c-21.16,0.81-45.57,1.63-69.98,1.63c-23.6,0-47.2-0.81-68.35-1.63c-43.94-2.44-69.17-27.67-69.98-64.28
		c-0.81-35.8-0.81-83.81-0.81-131.82c0-48.82,0-98.46,0.81-138.33c0.81-28.48,21.97-60.21,71.61-62.66
		c20.34-0.81,43.94-1.63,67.54-1.63c24.41,0,48.01,0.81,68.35,1.63c48.01,1.63,70.79,30.11,72.42,61.84
		c1.63,35.8,2.44,80.56,2.44,126.12c0,52.89-0.81,104.97-2.44,144.03C2390.12,647.56,2361.64,671.16,2320.14,673.6z M2352.68,427.86
		h-203.43v83.81h203.43V427.86z M2351.87,395.31c0-17.09,0-33.36-0.81-47.19c-1.63-39.06-26.85-39.06-104.15-39.06
		c-62.66,0-94.39,0.81-96.02,39.87c0,13.83-0.81,29.29-0.81,46.38H2351.87z M2150.07,544.22c0,21.16,0,40.69,0.81,56.96
		c1.63,39.87,34.99,40.69,93.58,40.69c21.97,0,43.94-0.81,64.28-1.63c41.5-2.44,43.94-17.9,43.94-96.02H2150.07z M2395.81,885.16
		c-27.67-43.13-64.28-76.49-107.41-102.53c-5.7-4.07-8.14-8.95-8.14-13.83c0-9.76,8.95-19.53,21.16-19.53
		c25.22,0,135.89,88.69,135.89,122.87c0,13.02-11.39,23.6-23.6,23.6C2407.2,895.74,2400.69,892.48,2395.81,885.16z"/>
	<path class="st0" d="M2718.03,326.96h-0.81c-13.02,0-19.53-10.58-19.53-21.16c0-10.58,6.51-21.97,19.53-21.97
		c35.8-0.81,98.46-1.63,131.82-1.63h2.44c43.94,0,76.49,24.41,76.49,62.66c1.63,196.92,124.5,420.69,307.58,518.33
		c10.58,5.7,15.46,13.83,15.46,22.78c0,14.65-13.02,28.48-28.48,28.48c-28.48,0-243.3-146.47-314.9-423.94
		c-71.61,331.18-313.28,433.7-327.92,433.7c-14.65,0-26.85-13.02-26.85-26.04c0-8.14,4.07-16.27,14.65-21.16
		c217.26-103.34,310.02-331.99,318.16-526.47c-3.25-17.09-14.65-26.85-43.94-26.85h-3.25L2718.03,326.96z"/>
	<path class="st0" d="M3447.92,564.56c-12.21,0-17.9-9.76-17.9-18.72c0-10.58,6.51-20.34,18.71-20.34l177.39,0.81
		c0-35.8-0.81-75.67-0.81-113.92h-201.8c-12.21,0-18.71-9.76-18.71-19.53c0-10.58,6.51-20.34,18.71-20.34l201.8,0.81
		c-0.81-43.13-1.63-80.56-3.25-103.34v-2.44c0-13.02,10.58-19.53,21.16-19.53c11.39,0,22.78,7.32,22.78,21.16
		c0.81,26.85,1.63,78.12,1.63,134.26c0,86.25-0.81,183.08-1.63,217.26c0,11.39-0.81,22.78-1.63,33.36
		c21.16-4.88,40.68-10.58,56.96-14.65c1.63-0.81,3.25-0.81,4.88-0.81c9.76,0,16.27,9.76,16.27,19.53c0,16.27-1.63,17.09-83.81,38.24
		c-41.5,209.12-229.46,241.67-252.25,241.67c-15.46,0-23.6-11.39-23.6-21.97c0-9.76,6.51-19.53,18.72-21.16
		c121.24-17.9,188.78-96.83,213.19-189.59c-10.58,2.44-182.27,42.31-215.63,42.31c-13.83,0-20.34-11.39-20.34-22.78
		c0-9.76,4.88-19.53,16.27-20.34c57.77-6.51,149.72-23.6,227.84-41.5c1.63-13.02,2.44-25.22,2.44-38.24
		c0-13.83,0.81-34.99,0.81-61.03L3447.92,564.56z M3818.16,735.44l0.81,184.71c0,14.65-10.58,21.97-21.97,21.97
		c-10.58,0-21.16-7.32-21.16-21.97V268.37c0-13.83,10.58-21.16,21.16-21.16c11.39,0,21.97,7.32,21.97,21.16l-0.81,104.97
		l212.38-0.81c13.02,0,19.53,9.76,19.53,19.53c0,10.58-6.51,20.34-19.53,20.34l-212.38-0.81l-0.81,124.5l182.27-0.81
		c12.21,0,18.71,9.76,18.71,19.53s-6.51,19.53-18.71,19.53l-182.27-0.81l0.81,123.68l227.02-1.63c13.02,0,18.72,9.76,18.72,20.34
		c0,9.76-5.7,20.34-18.72,20.34L3818.16,735.44z"/>
	<path class="st0" d="M4261.62,564.56c-12.21,0-17.9-9.76-17.9-18.72c0-10.58,6.51-20.34,18.71-20.34l177.39,0.81
		c0-35.8-0.81-75.67-0.81-113.92h-201.8c-12.21,0-18.71-9.76-18.71-19.53c0-10.58,6.51-20.34,18.71-20.34l201.8,0.81
		c-0.81-43.13-1.63-80.56-3.25-103.34v-2.44c0-13.02,10.58-19.53,21.16-19.53c11.39,0,22.78,7.32,22.78,21.16
		c0.81,26.85,1.63,78.12,1.63,134.26c0,86.25-0.81,183.08-1.63,217.26c0,11.39-0.81,22.78-1.63,33.36
		c21.16-4.88,40.69-10.58,56.96-14.65c1.63-0.81,3.25-0.81,4.88-0.81c9.76,0,16.27,9.76,16.27,19.53c0,16.27-1.63,17.09-83.81,38.24
		c-41.5,209.12-229.46,241.67-252.25,241.67c-15.46,0-23.6-11.39-23.6-21.97c0-9.76,6.51-19.53,18.72-21.16
		c121.24-17.9,188.78-96.83,213.19-189.59c-10.58,2.44-182.27,42.31-215.63,42.31c-13.83,0-20.34-11.39-20.34-22.78
		c0-9.76,4.88-19.53,16.27-20.34c57.77-6.51,149.72-23.6,227.84-41.5c1.63-13.02,2.44-25.22,2.44-38.24
		c0-13.83,0.81-34.99,0.81-61.03L4261.62,564.56z M4631.85,735.44l0.81,184.71c0,14.65-10.58,21.97-21.97,21.97
		c-10.58,0-21.16-7.32-21.16-21.97V268.37c0-13.83,10.58-21.16,21.16-21.16c11.39,0,21.97,7.32,21.97,21.16l-0.81,104.97
		l212.38-0.81c13.02,0,19.53,9.76,19.53,19.53c0,10.58-6.51,20.34-19.53,20.34l-212.38-0.81l-0.81,124.5l182.27-0.81
		c12.21,0,18.71,9.76,18.71,19.53s-6.51,19.53-18.71,19.53l-182.27-0.81l0.81,123.68l227.02-1.63c13.02,0,18.72,9.76,18.72,20.34
		c0,9.76-5.7,20.34-18.72,20.34L4631.85,735.44z"/>
</g>
</svg>
