<?xml version="1.0" encoding="utf-8"?>
<!-- Generator: Adobe Illustrator 24.1.0, SVG Export Plug-In . SVG Version: 6.00 Build 0)  -->
<svg version="1.1" id="Ebene_1" xmlns="http://www.w3.org/2000/svg" xmlns:xlink="http://www.w3.org/1999/xlink" x="0px" y="0px"
	 viewBox="0 0 8000 1200" style="enable-background:new 0 0 8000 1200;" xml:space="preserve">
<style type="text/css">
	.st0{fill:none;stroke:#000000;}
	.st1{fill:none;stroke:#000000;stroke-miterlimit:10;}
</style>
<polygon class="st0" points="1997.05,348.1 2012.92,363.97 2028.79,379.84 2044.65,395.7 2060.52,411.57 2060.52,475.05 
	2060.52,538.52 2060.52,601.99 2060.52,665.47 2044.65,681.33 2028.79,697.2 2012.92,713.07 1997.05,728.94 1949.44,728.94 
	1901.84,728.94 1854.23,728.94 1806.63,728.94 1806.63,633.73 1806.63,538.52 1806.63,443.31 1806.63,348.1 1854.23,348.1 
	1901.84,348.1 1949.44,348.1 "/>
<polygon class="st1" points="2453.64,475.05 2453.64,538.52 2453.64,601.99 2453.64,665.47 2453.64,728.94 2453.64,681.33 
	2453.64,633.73 2453.64,586.12 2453.64,538.52 2390.16,538.52 2326.69,538.52 2263.22,538.52 2199.74,538.52 2199.74,586.12 
	2199.74,633.73 2199.74,681.33 2199.74,728.94 2199.74,665.47 2199.74,601.99 2199.74,538.52 2199.74,475.05 2231.48,443.31 
	2263.22,411.57 2294.95,379.84 2326.69,348.1 2358.43,379.84 2390.16,411.57 2421.9,443.31 "/>
<polygon class="st0" points="2592.86,348.1 2592.86,363.97 2592.86,379.84 2592.86,395.7 2592.86,411.57 2624.6,443.31 
	2656.33,475.05 2688.07,506.78 2719.81,538.52 2719.81,586.12 2719.81,633.73 2719.81,681.33 2719.81,728.94 2719.81,681.33 
	2719.81,633.73 2719.81,586.12 2719.81,538.52 2751.54,506.78 2783.28,475.05 2815.02,443.31 2846.75,411.57 2846.75,395.7 
	2846.75,379.84 2846.75,363.97 2846.75,348.1 2846.75,363.97 2846.75,379.84 2846.75,395.7 2846.75,411.57 2815.02,443.31 
	2783.28,475.05 2751.54,506.78 2719.81,538.52 2688.07,506.78 2656.33,475.05 2624.6,443.31 2592.86,411.57 2592.86,395.7 
	2592.86,379.84 2592.86,363.97 "/>
<polygon class="st0" points="3176.4,348.1 3192.26,363.97 3208.13,379.84 3224,395.7 3239.87,411.57 3239.87,475.05 3239.87,538.52 
	3239.87,601.99 3239.87,665.47 3224,681.33 3208.13,697.2 3192.26,713.07 3176.4,728.94 3128.79,728.94 3081.19,728.94 
	3033.58,728.94 2985.98,728.94 2985.98,633.73 2985.98,538.52 2985.98,443.31 2985.98,348.1 3033.58,348.1 3081.19,348.1 
	3128.79,348.1 "/>
<polygon class="st0" points="3569.51,348.1 3585.38,363.97 3601.25,379.84 3617.12,395.7 3632.99,411.57 3632.99,427.44 
	3632.99,443.31 3632.99,459.18 3632.99,475.05 3617.12,490.91 3601.25,506.78 3585.38,522.65 3569.51,538.52 3537.78,538.52 
	3506.04,538.52 3474.3,538.52 3442.57,538.52 3490.17,586.12 3537.78,633.73 3585.38,681.33 3632.99,728.94 3585.38,681.33 
	3537.78,633.73 3490.17,586.12 3442.57,538.52 3426.7,538.52 3410.83,538.52 3394.96,538.52 3379.09,538.52 3379.09,586.12 
	3379.09,633.73 3379.09,681.33 3379.09,728.94 3379.09,633.73 3379.09,538.52 3379.09,443.31 3379.09,348.1 3426.7,348.1 
	3474.3,348.1 3521.91,348.1 "/>
<polygon class="st0" points="3772.21,348.1 3772.21,443.31 3772.21,538.52 3772.21,633.73 3772.21,728.94 3835.68,728.94 
	3899.15,728.94 3962.63,728.94 4026.1,728.94 3962.63,728.94 3899.15,728.94 3835.68,728.94 3772.21,728.94 3772.21,681.33 
	3772.21,633.73 3772.21,586.12 3772.21,538.52 3819.81,538.52 3867.42,538.52 3915.02,538.52 3962.63,538.52 3915.02,538.52 
	3867.42,538.52 3819.81,538.52 3772.21,538.52 3772.21,490.91 3772.21,443.31 3772.21,395.7 3772.21,348.1 3835.68,348.1 
	3899.15,348.1 3962.63,348.1 4026.1,348.1 3962.63,348.1 3899.15,348.1 3835.68,348.1 "/>
<polygon class="st0" points="4419.22,475.05 4419.22,538.52 4419.22,601.99 4419.22,665.47 4419.22,728.94 4419.22,681.33 
	4419.22,633.73 4419.22,586.12 4419.22,538.52 4355.74,538.52 4292.27,538.52 4228.8,538.52 4165.32,538.52 4165.32,586.12 
	4165.32,633.73 4165.32,681.33 4165.32,728.94 4165.32,665.47 4165.32,601.99 4165.32,538.52 4165.32,475.05 4197.06,443.31 
	4228.8,411.57 4260.53,379.84 4292.27,348.1 4324.01,379.84 4355.74,411.57 4387.48,443.31 "/>
<polygon class="st0" points="4558.44,348.1 4558.44,443.31 4558.44,538.52 4558.44,633.73 4558.44,728.94 4558.44,633.73 
	4558.44,538.52 4558.44,443.31 4558.44,348.1 4590.17,379.84 4621.91,411.57 4653.65,443.31 4685.38,475.05 4685.38,490.91 
	4685.38,506.78 4685.38,522.65 4685.38,538.52 4685.38,522.65 4685.38,506.78 4685.38,490.91 4685.38,475.05 4717.12,443.31 
	4748.86,411.57 4780.6,379.84 4812.33,348.1 4812.33,443.31 4812.33,538.52 4812.33,633.73 4812.33,728.94 4812.33,633.73 
	4812.33,538.52 4812.33,443.31 4812.33,348.1 4780.6,379.84 4748.86,411.57 4717.12,443.31 4685.38,475.05 4653.65,443.31 
	4621.91,411.57 4590.17,379.84 "/>
</svg>
