<?xml version="1.0" encoding="utf-8"?>
<!-- Generator: Adobe Illustrator 24.1.0, SVG Export Plug-In . SVG Version: 6.00 Build 0)  -->
<svg version="1.1" id="Ebene_1" xmlns="http://www.w3.org/2000/svg" xmlns:xlink="http://www.w3.org/1999/xlink" x="0px" y="0px"
	 viewBox="0 0 8000 1200" style="enable-background:new 0 0 8000 1200;" xml:space="preserve">
<style type="text/css">
	.st0{fill:none;stroke:#030304;stroke-width:56.6929;stroke-miterlimit:1;}
</style>
<polygon class="st0" points="163.5,1063.1 163.5,1048.9 163.5,1034.7 163.5,1020.5 163.5,1006.3 163.5,992.1 163.5,977.9 
	163.5,963.7 163.5,949.5 163.5,935.3 163.5,921.1 163.5,906.9 163.5,892.7 163.5,878.5 163.5,864.3 163.5,850.1 163.5,836 
	163.5,821.8 163.5,807.5 163.5,793.4 163.5,779.2 163.5,765 163.5,750.8 163.5,736.6 163.5,722.4 163.5,708.2 163.5,694 
	163.5,679.8 163.5,665.6 163.5,651.4 163.5,637.2 163.5,623 163.5,608.8 163.5,594.6 163.5,580.4 163.5,566.2 163.5,552 
	163.5,537.8 163.5,523.6 163.5,509.4 163.5,495.2 163.5,481 163.5,466.9 163.5,452.7 163.5,438.5 163.5,424.3 163.5,410.1 
	163.5,395.9 163.5,381.7 163.5,367.5 163.5,353.3 163.5,339.1 163.5,324.9 163.5,310.7 163.5,296.5 163.5,282.3 163.5,268.1 
	163.5,253.9 163.5,239.7 163.5,225.5 163.5,211.3 163.5,197.1 163.5,182.9 163.5,168.7 163.5,154.5 255.3,219 347.2,283.6 
	439.1,348.1 531,412.6 622.8,477.1 714.7,541.6 806.6,606.1 898.5,670.6 875.5,682.9 852.5,695.1 829.6,707.4 806.6,719.7 
	783.6,731.9 760.7,744.2 737.7,756.5 714.7,768.7 691.7,781 668.8,793.2 645.8,805.5 622.8,817.8 599.9,830 576.9,842.3 
	553.9,854.6 531,866.8 508,879.1 485,891.4 462.1,903.6 439.1,915.9 416.1,928.2 393.2,940.4 370.2,952.7 347.2,965 324.2,977.2 
	301.3,989.5 278.3,1001.8 255.4,1014 232.4,1026.3 209.4,1038.6 186.4,1050.8 "/>
<polygon class="st0" points="3202.4,1063.1 3202.4,1034.7 3202.4,1006.3 3202.4,977.9 3202.4,949.5 3202.4,921.1 3202.4,892.7 
	3202.4,864.3 3202.4,836 3202.4,807.6 3202.4,779.2 3202.4,750.8 3202.4,722.4 3202.4,694 3202.4,665.6 3202.4,637.2 3202.4,608.8 
	3202.4,580.4 3202.4,552 3202.4,523.6 3202.4,495.2 3202.4,466.9 3202.4,438.5 3202.4,410.1 3202.4,381.7 3202.4,353.3 
	3202.4,324.9 3202.4,296.5 3202.4,268.1 3202.4,239.7 3202.4,211.3 3202.4,182.9 3202.4,154.5 3213.9,162.6 3225.3,170.7 
	3236.8,178.7 3248.3,186.8 3259.8,194.9 3271.3,202.9 3282.8,211 3294.2,219.1 3305.7,227.1 3317.2,235.2 3328.7,243.2 
	3340.2,251.3 3351.7,259.4 3363.1,267.4 3374.6,275.5 3386.1,283.6 3397.6,291.6 3409.1,299.7 3420.6,307.7 3432.1,315.8 
	3443.5,323.9 3455,331.9 3466.5,340 3478,348.1 3489.5,356.1 3501,364.2 3512.4,372.3 3523.9,380.3 3535.4,388.4 3546.9,396.4 
	3558.4,404.5 3569.9,412.6 3581.3,420.6 3592.8,428.7 3604.3,436.8 3615.8,444.8 3627.3,452.9 3638.8,461 3650.2,469 3661.7,477.1 
	3673.2,485.1 3684.7,493.2 3696.2,501.3 3707.7,509.3 3719.2,517.4 3730.6,525.5 3742.1,533.5 3753.6,541.6 3765.1,549.6 
	3776.6,557.7 3788.1,565.8 3799.5,573.8 3811,581.9 3822.5,590 3834,598 3845.5,606.1 3857,614.2 3868.4,622.2 3879.9,630.3 
	3891.4,638.3 3902.9,646.4 3914.4,654.5 3925.9,662.5 3937.4,670.6 3925.9,676.7 3914.4,682.9 3902.9,689 3891.4,695.1 
	3879.9,701.3 3868.4,707.4 3857,713.5 3845.5,719.7 3834,725.8 3822.5,731.9 3811,738.1 3799.5,744.2 3788.1,750.3 3776.6,756.5 
	3765.1,762.6 3753.6,768.7 3742.1,774.8 3730.6,781 3719.2,787.1 3707.7,793.2 3696.2,799.4 3684.7,805.5 3673.2,811.6 
	3661.7,817.8 3650.2,823.9 3638.8,830 3627.3,836.2 3615.8,842.3 3604.3,848.4 3592.8,854.6 3581.3,860.7 3569.9,866.8 3558.4,873 
	3546.9,879.1 3535.4,885.2 3523.9,891.4 3512.4,897.5 3501,903.6 3489.5,909.8 3478,915.9 3466.5,922 3455,928.2 3443.5,934.3 
	3432.1,940.4 3420.6,946.6 3409.1,952.7 3397.6,958.8 3386.1,965 3374.6,971.1 3363.1,977.2 3351.7,983.4 3340.2,989.5 
	3328.7,995.6 3317.2,1001.8 3305.7,1007.9 3294.2,1014 3282.8,1020.2 3271.3,1026.3 3259.8,1032.4 3248.3,1038.6 3236.8,1044.7 
	3225.3,1050.8 3213.9,1056.9 "/>
<polyline class="st0" points="4119.2,1063.1 4119.2,1051.3 4119.2,1039.5 4119.2,1027.8 4119.2,1016 4119.2,1004.2 4119.2,992.4 
	4119.2,980.6 4119.2,968.9 4119.2,957.1 4119.2,945.3 4119.2,933.5 4119.2,921.8 4119.2,910 4119.2,898.2 4119.2,886.4 
	4119.2,874.7 4119.2,862.9 4119.2,851.1 4119.2,839.3 4119.2,827.5 4119.2,815.8 4119.2,804 4119.2,792.2 4119.2,780.5 
	4119.2,768.7 4119.2,756.9 4119.2,745.1 4119.2,733.3 4119.2,721.6 4119.2,709.8 4119.2,698 4119.2,686.2 4119.2,669.6 4119.2,653 
	4119.2,636.4 4119.2,619.8 4119.2,603.2 4119.2,586.5 4119.2,569.9 4119.2,553.3 4119.2,536.7 4119.2,520.1 4119.2,503.5 
	4119.2,486.9 4119.2,470.2 4119.2,453.6 4119.2,437 4119.2,420.4 4119.2,403.8 4119.2,387.2 4119.2,370.5 4119.2,353.9 
	4119.2,337.3 4119.2,320.7 4119.2,304.1 4119.2,287.5 4119.2,270.9 4119.2,254.2 4119.2,237.6 4119.2,221 4119.2,204.4 
	4119.2,187.8 4119.2,171.2 4119.2,154.5 4176.6,171.9 4234,189.3 4291.4,206.7 4348.8,224.1 4406.1,241.5 4463.5,258.9 
	4520.9,276.3 4578.3,293.7 4635.6,311.1 4693,328.5 4750.4,345.9 4807.8,363.3 4865.2,380.7 4922.5,398.1 4979.9,415.5 
	5037.3,432.9 4984.2,447.4 4931.1,461.9 4878,476.5 4824.9,491 4771.8,505.5 4718.7,520.1 4665.6,534.6 4612.5,549.1 4559.4,563.7 
	4506.3,578.2 4453.2,592.7 4400.1,607.2 4347,621.8 4293.9,636.3 4240.8,650.9 4187.6,665.4 4293.9,715.1 4400.1,764.8 
	4506.3,814.5 4612.5,864.2 4718.7,913.9 4824.9,963.7 4931.1,1013.4 5037.3,1063.1 "/>
<polyline class="st0" points="1094.3,1035.5 1097,1028.6 1099.7,1021.7 1102.4,1014.8 1105.1,1008 1107.8,1001.1 1110.4,994.2 
	1113.1,987.3 1115.8,980.4 1118.5,973.5 1121.2,966.7 1123.9,959.8 1126.6,952.9 1129.3,946 1132,939.1 1134.6,932.2 1137.3,925.4 
	1140,918.5 1142.7,911.6 1145.4,904.7 1148.1,897.8 1150.8,891 1153.5,884.1 1156.1,877.2 1158.8,870.3 1161.5,863.4 1164.2,856.5 
	1166.9,849.7 1169.6,842.8 1172.3,835.9 1175,829 1177.6,822.1 1180.3,815.2 1183,808.4 1185.7,801.5 1188.4,794.6 1191.1,787.7 
	1193.8,780.8 1196.5,774 1199.1,767.1 1201.8,760.2 1204.5,753.3 1207.2,746.4 1209.9,739.5 1212.6,732.7 1215.3,725.8 1218,718.9 
	1220.7,712 1223.3,705.1 1226,698.2 1228.7,691.4 1231.4,684.5 1234.1,677.6 1236.8,670.7 1239.5,663.8 1242.2,657 1244.8,650.1 
	1247.5,643.2 1250.2,636.3 1252.9,629.4 1255.6,622.5 1258.3,615.7 1261,608.8 1263.7,601.9 1266.3,595 1269,588.1 1271.7,581.2 
	1274.4,574.4 1277.1,567.5 1279.8,560.6 1282.5,553.7 1285.2,546.8 1287.8,540 1290.5,533.1 1293.2,526.2 1295.9,519.3 
	1298.6,512.4 1301.3,505.5 1304,498.7 1306.7,491.8 1309.3,484.9 1312,478 1314.7,471.1 1317.4,464.2 1320.1,457.4 1322.8,450.5 
	1325.5,443.6 1328.2,436.7 1330.8,429.8 1333.5,423 1336.2,416.1 1338.9,409.2 1341.6,402.3 1344.3,395.4 1347,388.5 1349.7,381.7 
	1352.3,374.8 1355,367.9 1357.7,361 1360.4,354.1 1363.1,347.2 1365.8,340.4 1368.5,333.5 1371.2,326.6 1373.9,319.7 1376.5,312.8 
	1379.2,306 1381.9,299.1 1384.6,292.2 1387.3,285.3 1390,278.4 1392.7,271.5 1395.4,264.7 1398,257.8 1400.7,250.9 1403.4,244 
	1406.1,237.1 1408.8,230.2 1411.5,223.4 1414.2,216.5 1416.9,209.6 1419.6,202.7 1422.2,195.8 1424.9,189 1427.6,182.1 
	1430.3,175.2 1433,168.3 1435.7,161.4 1438.4,154.5 1449.1,182.1 1459.9,209.6 1470.6,237.1 1481.4,264.7 1492.1,292.2 
	1502.9,319.7 1513.6,347.2 1524.4,374.8 1535.1,402.3 1545.9,429.8 1556.6,457.4 1567.4,484.9 1578.1,512.4 1588.9,540 
	1599.6,567.5 1610.4,595 1621.1,622.5 1631.9,650.1 1642.6,677.6 1653.4,705.1 1664.1,732.7 1674.9,760.2 1685.6,787.7 
	1696.4,815.2 1707.1,842.8 1717.9,870.3 1728.6,897.8 1739.4,925.4 1750.1,952.9 1760.9,980.4 1771.7,1008 1782.4,1035.5 "/>
<polyline class="st0" points="2845.8,201.5 2812.6,223.6 2779.3,245.8 2746.1,267.9 2712.9,290.1 2679.6,312.2 2646.4,334.4 
	2613.2,356.5 2579.9,378.7 2546.7,400.8 2513.5,423 2480.2,445.1 2447,467.3 2413.8,489.5 2380.6,511.6 2347.3,533.8 2314.1,555.9 
	2297.5,544.8 2280.9,533.8 2264.2,522.7 2247.6,511.6 2231,500.5 2214.4,489.5 2197.8,478.4 2181.2,467.3 2164.6,456.2 
	2147.9,445.1 2131.3,434.1 2114.7,423 2098.1,411.9 2081.5,400.8 2064.9,389.8 2048.2,378.7 2031.6,367.6 2015,356.5 1998.4,345.5 
	1981.8,334.4 1965.2,323.3 1948.6,312.2 1931.9,301.2 1915.3,290.1 1898.7,279 1882.1,267.9 1865.5,256.8 1848.9,245.8 
	1832.2,234.7 1815.6,223.6 1799,212.5 1782.4,201.5 "/>
<polyline class="st0" points="2314.1,555.9 2314.1,563.8 2314.1,571.8 2314.1,579.7 2314.1,587.6 2314.1,595.5 2314.1,603.5 
	2314.1,611.4 2314.1,619.3 2314.1,627.2 2314.1,635.2 2314.1,643.1 2314.1,651 2314.1,658.9 2314.1,666.9 2314.1,674.8 
	2314.1,682.7 2314.1,690.6 2314.1,698.6 2314.1,706.5 2314.1,714.4 2314.1,722.3 2314.1,730.3 2314.1,738.2 2314.1,746.1 
	2314.1,754 2314.1,762 2314.1,769.9 2314.1,777.8 2314.1,785.7 2314.1,793.7 2314.1,801.6 2314.1,809.5 2314.1,817.4 2314.1,825.3 
	2314.1,833.3 2314.1,841.2 2314.1,849.1 2314.1,857 2314.1,865 2314.1,872.9 2314.1,880.8 2314.1,888.7 2314.1,896.7 2314.1,904.6 
	2314.1,912.5 2314.1,920.4 2314.1,928.4 2314.1,936.3 2314.1,944.2 2314.1,952.1 2314.1,960.1 2314.1,968 2314.1,975.9 
	2314.1,983.8 2314.1,991.8 2314.1,999.7 2314.1,1007.6 2314.1,1015.5 2314.1,1023.5 2314.1,1031.4 2314.1,1039.3 2314.1,1047.2 
	2314.1,1055.2 2314.1,1063.1 "/>
<polyline class="st0" points="1070.5,738.4 1082.2,736.1 1093.9,733.9 1105.7,731.6 1117.4,729.4 1129.1,727.2 1140.8,724.9 
	1152.6,722.7 1164.3,720.4 1176,718.2 1187.8,716 1199.5,713.7 1211.2,711.5 1222.9,709.2 1234.7,707 1246.4,704.8 1258.1,702.5 
	1269.9,700.3 1281.6,698 1293.3,695.8 1305.1,693.6 1316.8,691.3 1328.5,689.1 1340.2,686.8 1352,684.6 1363.7,682.4 1375.4,680.1 
	1387.1,677.9 1398.9,675.7 1410.6,673.4 1422.3,671.2 1434.1,668.9 1445.8,666.7 1457.5,664.5 1469.2,662.2 1481,660 1492.7,657.7 
	1504.4,655.5 1516.2,653.2 1527.9,651 1539.6,648.8 1551.3,646.5 1563.1,644.3 1574.8,642 1586.5,639.8 1598.3,637.6 1610,635.3 
	1621.7,633.1 1633.4,630.8 1645.2,628.6 1656.9,626.4 1668.6,624.1 1680.4,621.9 1692.1,619.7 1703.8,617.4 1715.5,615.2 
	1727.3,612.9 1739,610.7 1750.7,608.5 1762.5,606.2 1774.2,604 1785.9,601.7 1797.6,599.5 1809.4,597.2 1821.1,595 "/>
<polyline class="st0" points="5874.8,1063.1 5880.2,1048.9 5885.6,1034.7 5890.9,1020.5 5896.3,1006.3 5901.7,992.1 5907.1,977.9 
	5912.4,963.7 5917.8,949.5 5923.2,935.3 5928.6,921.1 5933.9,906.9 5939.3,892.7 5944.7,878.5 5950.1,864.3 5955.5,850.1 
	5960.8,836 5966.2,821.8 5971.6,807.5 5977,793.4 5982.3,779.2 5987.7,765 5993.1,750.8 5998.5,736.6 6003.8,722.4 6009.2,708.2 
	6014.6,694 6020,679.8 6025.3,665.6 6030.7,651.4 6036.1,637.2 6041.5,623 6046.8,608.8 6052.2,594.6 6057.6,580.4 6063,566.2 
	6068.3,552 6073.7,537.8 6079.1,523.6 6084.5,509.4 6089.8,495.2 6095.2,481 6100.6,466.9 6106,452.7 6111.3,438.5 6116.7,424.3 
	6122.1,410.1 6127.5,395.9 6132.8,381.7 6138.2,367.5 6143.6,353.3 6149,339.1 6154.4,324.9 6159.7,310.7 6165.1,296.5 
	6170.5,282.3 6175.9,268.1 6181.2,253.9 6186.6,239.7 6192,225.5 6197.4,211.3 6202.7,197.1 6208.1,182.9 6213.5,168.7 
	6218.9,154.5 6224.2,168.7 6229.6,182.9 6235,197.1 6240.4,211.3 6245.7,225.5 6251.1,239.7 6256.5,253.9 6261.9,268.1 
	6267.2,282.3 6272.6,296.5 6278,310.7 6283.4,324.9 6288.7,339.1 6294.1,353.3 6299.5,367.5 6304.9,381.7 6310.2,395.9 
	6315.6,410.1 6321,424.3 6326.4,438.5 6331.7,452.7 6337.1,466.9 6342.5,481 6347.9,495.2 6353.2,509.4 6358.6,523.6 6364,537.8 
	6369.4,552 6374.7,566.2 6380.1,580.4 6385.5,594.6 6390.9,608.8 6396.2,623 6401.6,637.2 6407,651.4 6412.4,665.6 6417.7,679.8 
	6423.1,694 6428.5,708.2 6433.9,722.4 6439.2,736.6 6444.6,750.8 6450,765 6455.4,779.2 6460.8,793.4 6466.1,807.5 6471.5,821.8 
	6476.9,836 6482.3,850.1 6487.6,864.3 6493,878.5 6498.4,892.7 6503.8,906.9 6509.1,921.1 6514.5,935.3 6519.9,949.5 6525.3,963.7 
	6530.6,977.9 6536,992.1 6541.4,1006.3 6546.8,1020.5 6552.1,1034.7 6557.5,1048.9 6562.9,1063.1 "/>
<polyline class="st0" points="5874.8,436 5917.8,450.4 5960.8,464.7 6003.8,479 6046.8,493.4 6089.8,507.7 6132.8,522 6175.8,536.4 
	6218.9,550.7 6261.9,565 6304.9,579.4 6347.9,593.7 6390.9,608 6433.9,622.4 6476.9,636.7 6519.9,651.1 6562.9,665.4 "/>
<polyline class="st0" points="5037.3,608.8 5125.3,628.3 5213.2,647.7 5301.2,667.2 5389.2,686.6 5477.1,706.1 5565.1,725.5 
	5653.1,745 5741,764.4 "/>
<polyline class="st0" points="5741,154.5 5732.3,154.5 5723.6,154.5 5714.9,154.5 5706.2,154.5 5697.4,154.5 5688.7,154.5 
	5680,154.5 5671.3,154.5 5662.6,154.5 5653.9,154.5 5645.2,154.5 5636.4,154.5 5627.7,154.5 5619,154.5 5610.3,154.5 5601.6,154.5 
	5592.9,154.5 5584.1,154.5 5575.4,154.5 5566.7,154.5 5558,154.5 5549.3,154.5 5540.6,154.5 5531.9,154.5 5523.1,154.5 
	5514.4,154.5 5505.7,154.5 5497,154.5 5488.3,154.5 5479.6,154.5 5470.9,154.5 5462.1,154.5 5453.4,154.5 5444.7,154.5 5436,154.5 
	5427.3,154.5 5418.6,154.5 5409.9,154.5 5401.1,154.5 5392.4,154.5 5383.7,154.5 5375,154.5 5366.3,154.5 5357.6,154.5 
	5348.8,154.5 5340.1,154.5 5331.4,154.5 5322.7,154.5 5314,154.5 5305.3,154.5 5296.6,154.5 5287.8,154.5 5279.1,154.5 
	5270.4,154.5 5261.7,154.5 5253,154.5 5244.3,154.5 5235.5,154.5 5226.8,154.5 5218.1,154.5 5209.4,154.5 5200.7,154.5 5192,154.5 
	5183.3,154.5 5183.3,168.7 5183.3,182.9 5183.3,197.1 5183.3,211.3 5183.3,225.5 5183.3,239.7 5183.3,253.9 5183.3,268.1 
	5183.3,282.3 5183.3,296.5 5183.3,310.7 5183.3,324.9 5183.3,339.1 5183.3,353.3 5183.3,367.5 5183.3,381.7 5183.3,395.9 
	5183.3,410.1 5183.3,424.3 5183.3,438.5 5183.3,452.7 5183.3,466.9 5183.3,481 5183.3,495.2 5183.3,509.4 5183.3,523.6 
	5183.3,537.8 5183.3,552 5183.3,566.2 5183.3,580.4 5183.3,594.6 5183.3,608.8 5183.3,623 5183.3,637.2 5183.3,651.4 5183.3,665.6 
	5183.3,679.8 5183.3,694 5183.3,708.2 5183.3,722.4 5183.3,736.6 5183.3,750.8 5183.3,765 5183.3,779.2 5183.3,793.4 5183.3,807.5 
	5183.3,821.8 5183.3,836 5183.3,850.1 5183.3,864.3 5183.3,878.5 5183.3,892.7 5183.3,906.9 5183.3,921.1 5183.3,935.3 
	5183.3,949.5 5183.3,963.7 5183.3,977.9 5183.3,992.1 5183.3,1006.3 5183.3,1020.5 5183.3,1034.7 5183.3,1048.9 5183.3,1063.1 
	5192,1063.1 5200.7,1063.1 5209.4,1063.1 5218.1,1063.1 5226.8,1063.1 5235.5,1063.1 5244.3,1063.1 5253,1063.1 5261.7,1063.1 
	5270.4,1063.1 5279.1,1063.1 5287.8,1063.1 5296.6,1063.1 5305.3,1063.1 5314,1063.1 5322.7,1063.1 5331.4,1063.1 5340.1,1063.1 
	5348.8,1063.1 5357.6,1063.1 5366.3,1063.1 5375,1063.1 5383.7,1063.1 5392.4,1063.1 5401.1,1063.1 5409.9,1063.1 5418.6,1063.1 
	5427.3,1063.1 5436,1063.1 5444.7,1063.1 5453.4,1063.1 5462.1,1063.1 5470.9,1063.1 5479.6,1063.1 5488.3,1063.1 5497,1063.1 
	5505.7,1063.1 5514.4,1063.1 5523.1,1063.1 5531.9,1063.1 5540.6,1063.1 5549.3,1063.1 5558,1063.1 5566.7,1063.1 5575.4,1063.1 
	5584.1,1063.1 5592.9,1063.1 5601.6,1063.1 5610.3,1063.1 5619,1063.1 5627.7,1063.1 5636.4,1063.1 5645.2,1063.1 5653.9,1063.1 
	5662.6,1063.1 5671.3,1063.1 5680,1063.1 5688.7,1063.1 5697.4,1063.1 5706.2,1063.1 5714.9,1063.1 5723.6,1063.1 5732.3,1063.1 
	5741,1063.1 "/>
<polyline class="st0" points="6783.5,1063.1 6783.5,1048.9 6783.5,1034.7 6783.5,1020.5 6783.5,1006.3 6783.5,992.1 6783.5,977.9 
	6783.5,963.7 6783.5,949.5 6783.5,935.3 6783.5,921.1 6783.5,906.9 6783.5,892.7 6783.5,878.5 6783.5,864.3 6783.5,850.1 
	6783.5,836 6783.5,821.8 6783.5,807.5 6783.5,793.4 6783.5,779.2 6783.5,765 6783.5,750.8 6783.5,736.6 6783.5,722.4 6783.5,708.2 
	6783.5,694 6783.5,679.8 6783.5,665.6 6783.5,651.4 6783.5,637.2 6783.5,623 6783.5,608.8 6783.5,594.6 6783.5,580.4 6783.5,566.2 
	6783.5,552 6783.5,537.8 6783.5,523.6 6783.5,509.4 6783.5,495.2 6783.5,481 6783.5,466.9 6783.5,452.7 6783.5,438.5 6783.5,424.3 
	6783.5,410.1 6783.5,395.9 6783.5,381.7 6783.5,367.5 6783.5,353.3 6783.5,339.1 6783.5,324.9 6783.5,310.7 6783.5,296.5 
	6783.5,282.3 6783.5,268.1 6783.5,253.9 6783.5,239.7 6783.5,225.5 6783.5,211.3 6783.5,197.1 6783.5,182.9 6783.5,168.7 
	6783.5,154.5 6815.5,182.9 6847.5,211.2 6879.5,239.6 6911.5,267.9 6943.5,296.3 6975.5,324.6 7007.5,353 7039.5,381.3 
	7071.5,409.6 7103.5,438 7135.5,466.3 7167.5,494.7 7199.5,523 7231.5,551.4 7263.5,579.7 7295.5,608 7303.6,600.9 7311.6,593.8 
	7319.7,586.7 7327.7,579.5 7335.8,572.4 7343.8,565.3 7351.8,558.2 7359.9,551 7367.9,543.9 7376,536.8 7384,529.7 7392.1,522.5 
	7400.1,515.4 7408.2,508.3 7416.2,501.1 7424.3,494 7432.3,486.9 7440.4,479.8 7448.4,472.6 7456.4,465.5 7464.5,458.4 
	7472.5,451.3 7480.6,444.1 7488.6,437 7496.7,429.9 7504.7,422.8 7512.8,415.6 7520.8,408.5 7528.8,401.4 7536.9,394.2 
	7544.9,387.1 7553,380 7561,372.9 7569.1,365.7 7577.1,358.6 7585.2,351.5 7593.2,344.4 7601.3,337.2 7609.3,330.1 7617.4,323 
	7625.4,315.9 7633.4,308.7 7641.5,301.6 7649.5,294.5 7657.6,287.3 7665.6,280.2 7673.7,273.1 7681.7,266 7689.8,258.8 
	7697.8,251.7 7705.9,244.6 7713.9,237.5 7721.9,230.3 7730,223.2 7738,216.1 7746.1,208.9 7754.1,201.8 7762.2,194.7 7770.2,187.6 
	7778.3,180.4 7786.3,173.3 7794.4,166.2 7802.4,159.1 7810.4,151.9 7810.4,208.9 7810.4,265.8 7810.4,322.8 7810.4,379.7 
	7810.4,436.7 7810.4,493.6 7810.4,550.6 7810.4,607.5 7810.4,664.5 7810.4,721.4 7810.4,778.3 7810.4,835.3 7810.4,892.2 
	7810.4,949.2 7810.4,1006.1 7810.4,1063.1 "/>
</svg>
