<?xml version="1.0" encoding="utf-8"?>
<!-- Generator: Adobe Illustrator 24.1.0, SVG Export Plug-In . SVG Version: 6.00 Build 0)  -->
<svg version="1.1" id="Ebene_1" xmlns="http://www.w3.org/2000/svg" xmlns:xlink="http://www.w3.org/1999/xlink" x="0px" y="0px"
	 viewBox="0 0 8000 1200" style="enable-background:new 0 0 8000 1200;" xml:space="preserve">
<style type="text/css">
	.st0{fill:none;stroke:#030304;stroke-width:56.6929;stroke-miterlimit:1;}
</style>
<polygon class="st0" points="163.5,1063.1 163.5,1034.7 163.5,1006.3 163.5,977.9 163.5,949.5 163.5,921.1 163.5,892.7 163.5,864.3 
	163.5,836 163.5,807.5 163.5,779.2 163.5,750.8 163.5,722.4 163.5,694 163.5,665.6 163.5,637.2 163.5,608.8 163.5,580.4 163.5,552 
	163.5,523.6 163.5,495.2 163.5,466.9 163.5,438.5 163.5,410.1 163.5,381.7 163.5,353.3 163.5,324.9 163.5,296.5 163.5,268.1 
	163.5,239.7 163.5,211.3 163.5,182.9 163.5,154.5 347.2,283.6 531,412.6 714.7,541.6 898.5,670.6 852.5,695.1 806.6,719.7 
	760.7,744.2 714.7,768.7 668.8,793.2 622.8,817.8 576.9,842.3 531,866.8 485,891.4 439.1,915.9 393.2,940.4 347.2,965 301.3,989.5 
	255.4,1014 209.4,1038.6 "/>
<polygon class="st0" points="3202.4,1063.1 3202.4,1006.3 3202.4,949.5 3202.4,892.7 3202.4,836 3202.4,779.2 3202.4,722.4 
	3202.4,665.6 3202.4,608.8 3202.4,552 3202.4,495.2 3202.4,438.5 3202.4,381.7 3202.4,324.9 3202.4,268.1 3202.4,211.3 
	3202.4,154.5 3225.3,170.7 3248.3,186.8 3271.3,202.9 3294.2,219.1 3317.2,235.2 3340.2,251.3 3363.1,267.4 3386.1,283.6 
	3409.1,299.7 3432.1,315.8 3455,331.9 3478,348.1 3501,364.2 3523.9,380.3 3546.9,396.4 3569.9,412.6 3592.8,428.7 3615.8,444.8 
	3638.8,461 3661.7,477.1 3684.7,493.2 3707.7,509.3 3730.6,525.5 3753.6,541.6 3776.6,557.7 3799.5,573.8 3822.5,590 3845.5,606.1 
	3868.4,622.2 3891.4,638.3 3914.4,654.5 3937.4,670.6 3914.4,682.9 3891.4,695.1 3868.4,707.4 3845.5,719.7 3822.5,731.9 
	3799.5,744.2 3776.6,756.5 3753.6,768.7 3730.6,781 3707.7,793.2 3684.7,805.5 3661.7,817.8 3638.8,830 3615.8,842.3 3592.8,854.6 
	3569.9,866.8 3546.9,879.1 3523.9,891.4 3501,903.6 3478,915.9 3455,928.2 3432.1,940.4 3409.1,952.7 3386.1,965 3363.1,977.2 
	3340.2,989.5 3317.2,1001.8 3294.2,1014 3271.3,1026.3 3248.3,1038.6 3225.3,1050.8 "/>
<polyline class="st0" points="4119.2,1063.1 4119.2,1039.5 4119.2,1016 4119.2,992.4 4119.2,968.9 4119.2,945.3 4119.2,921.8 
	4119.2,898.2 4119.2,874.7 4119.2,851.1 4119.2,827.5 4119.2,804 4119.2,780.5 4119.2,756.9 4119.2,733.3 4119.2,709.8 
	4119.2,686.2 4119.2,653 4119.2,619.8 4119.2,586.5 4119.2,553.3 4119.2,520.1 4119.2,486.9 4119.2,453.6 4119.2,420.4 
	4119.2,387.2 4119.2,353.9 4119.2,320.7 4119.2,287.5 4119.2,254.2 4119.2,221 4119.2,187.8 4119.2,154.5 4234,189.3 4348.8,224.1 
	4463.5,258.9 4578.3,293.7 4693,328.5 4807.8,363.3 4922.5,398.1 5037.3,432.9 4931.1,461.9 4824.9,491 4718.7,520.1 4612.5,549.1 
	4506.3,578.2 4400.1,607.2 4293.9,636.3 4187.6,665.4 4400.1,764.8 4612.5,864.2 4824.9,963.7 5037.3,1063.1 "/>
<polyline class="st0" points="1094.3,1035.5 1099.7,1021.7 1105.1,1008 1110.4,994.2 1115.8,980.4 1121.2,966.7 1126.6,952.9 
	1132,939.1 1137.3,925.4 1142.7,911.6 1148.1,897.8 1153.5,884.1 1158.8,870.3 1164.2,856.5 1169.6,842.8 1175,829 1180.3,815.2 
	1185.7,801.5 1191.1,787.7 1196.5,774 1201.8,760.2 1207.2,746.4 1212.6,732.7 1218,718.9 1223.3,705.1 1228.7,691.4 1234.1,677.6 
	1239.5,663.8 1244.8,650.1 1250.2,636.3 1255.6,622.5 1261,608.8 1266.3,595 1271.7,581.2 1277.1,567.5 1282.5,553.7 1287.8,540 
	1293.2,526.2 1298.6,512.4 1304,498.7 1309.3,484.9 1314.7,471.1 1320.1,457.4 1325.5,443.6 1330.8,429.8 1336.2,416.1 
	1341.6,402.3 1347,388.5 1352.3,374.8 1357.7,361 1363.1,347.2 1368.5,333.5 1373.9,319.7 1379.2,306 1384.6,292.2 1390,278.4 
	1395.4,264.7 1400.7,250.9 1406.1,237.1 1411.5,223.4 1416.9,209.6 1422.2,195.8 1427.6,182.1 1433,168.3 1438.4,154.5 
	1459.9,209.6 1481.4,264.7 1502.9,319.7 1524.4,374.8 1545.9,429.8 1567.4,484.9 1588.9,540 1610.4,595 1631.9,650.1 1653.4,705.1 
	1674.9,760.2 1696.4,815.2 1717.9,870.3 1739.4,925.4 1760.9,980.4 1782.4,1035.5 "/>
<polyline class="st0" points="2845.8,201.5 2779.3,245.8 2712.9,290.1 2646.4,334.4 2579.9,378.7 2513.5,423 2447,467.3 
	2380.6,511.6 2314.1,555.9 2280.9,533.8 2247.6,511.6 2214.4,489.5 2181.2,467.3 2147.9,445.1 2114.7,423 2081.5,400.8 
	2048.2,378.7 2015,356.5 1981.8,334.4 1948.6,312.2 1915.3,290.1 1882.1,267.9 1848.9,245.8 1815.6,223.6 1782.4,201.5 "/>
<polyline class="st0" points="2314.1,555.9 2314.1,571.8 2314.1,587.6 2314.1,603.5 2314.1,619.3 2314.1,635.2 2314.1,651 
	2314.1,666.9 2314.1,682.7 2314.1,698.6 2314.1,714.4 2314.1,730.3 2314.1,746.1 2314.1,762 2314.1,777.8 2314.1,793.7 
	2314.1,809.5 2314.1,825.3 2314.1,841.2 2314.1,857 2314.1,872.9 2314.1,888.7 2314.1,904.6 2314.1,920.4 2314.1,936.3 
	2314.1,952.1 2314.1,968 2314.1,983.8 2314.1,999.7 2314.1,1015.5 2314.1,1031.4 2314.1,1047.2 2314.1,1063.1 "/>
<polyline class="st0" points="1070.5,738.4 1093.9,733.9 1117.4,729.4 1140.8,724.9 1164.3,720.4 1187.8,716 1211.2,711.5 
	1234.7,707 1258.1,702.5 1281.6,698 1305.1,693.6 1328.5,689.1 1352,684.6 1375.4,680.1 1398.9,675.7 1422.3,671.2 1445.8,666.7 
	1469.2,662.2 1492.7,657.7 1516.2,653.2 1539.6,648.8 1563.1,644.3 1586.5,639.8 1610,635.3 1633.4,630.8 1656.9,626.4 
	1680.4,621.9 1703.8,617.4 1727.3,612.9 1750.7,608.5 1774.2,604 1797.6,599.5 1821.1,595 "/>
<polyline class="st0" points="5874.8,1063.1 5885.6,1034.7 5896.3,1006.3 5907.1,977.9 5917.8,949.5 5928.6,921.1 5939.3,892.7 
	5950.1,864.3 5960.8,836 5971.6,807.5 5982.3,779.2 5993.1,750.8 6003.8,722.4 6014.6,694 6025.3,665.6 6036.1,637.2 6046.8,608.8 
	6057.6,580.4 6068.3,552 6079.1,523.6 6089.8,495.2 6100.6,466.9 6111.3,438.5 6122.1,410.1 6132.8,381.7 6143.6,353.3 
	6154.4,324.9 6165.1,296.5 6175.9,268.1 6186.6,239.7 6197.4,211.3 6208.1,182.9 6218.9,154.5 6229.6,182.9 6240.4,211.3 
	6251.1,239.7 6261.9,268.1 6272.6,296.5 6283.4,324.9 6294.1,353.3 6304.9,381.7 6315.6,410.1 6326.4,438.5 6337.1,466.9 
	6347.9,495.2 6358.6,523.6 6369.4,552 6380.1,580.4 6390.9,608.8 6401.6,637.2 6412.4,665.6 6423.1,694 6433.9,722.4 6444.6,750.8 
	6455.4,779.2 6466.1,807.5 6476.9,836 6487.6,864.3 6498.4,892.7 6509.1,921.1 6519.9,949.5 6530.6,977.9 6541.4,1006.3 
	6552.1,1034.7 6562.9,1063.1 "/>
<polyline class="st0" points="5874.8,436 5960.8,464.7 6046.8,493.4 6132.8,522 6218.9,550.7 6304.9,579.4 6390.9,608 6476.9,636.7 
	6562.9,665.4 "/>
<polyline class="st0" points="5037.3,608.8 5213.2,647.7 5389.2,686.6 5565.1,725.5 5741,764.4 "/>
<polyline class="st0" points="5741,154.5 5723.6,154.5 5706.2,154.5 5688.7,154.5 5671.3,154.5 5653.9,154.5 5636.4,154.5 
	5619,154.5 5601.6,154.5 5584.1,154.5 5566.7,154.5 5549.3,154.5 5531.9,154.5 5514.4,154.5 5497,154.5 5479.6,154.5 5462.1,154.5 
	5444.7,154.5 5427.3,154.5 5409.9,154.5 5392.4,154.5 5375,154.5 5357.6,154.5 5340.1,154.5 5322.7,154.5 5305.3,154.5 
	5287.8,154.5 5270.4,154.5 5253,154.5 5235.5,154.5 5218.1,154.5 5200.7,154.5 5183.3,154.5 5183.3,182.9 5183.3,211.3 
	5183.3,239.7 5183.3,268.1 5183.3,296.5 5183.3,324.9 5183.3,353.3 5183.3,381.7 5183.3,410.1 5183.3,438.5 5183.3,466.9 
	5183.3,495.2 5183.3,523.6 5183.3,552 5183.3,580.4 5183.3,608.8 5183.3,637.2 5183.3,665.6 5183.3,694 5183.3,722.4 5183.3,750.8 
	5183.3,779.2 5183.3,807.5 5183.3,836 5183.3,864.3 5183.3,892.7 5183.3,921.1 5183.3,949.5 5183.3,977.9 5183.3,1006.3 
	5183.3,1034.7 5183.3,1063.1 5200.7,1063.1 5218.1,1063.1 5235.5,1063.1 5253,1063.1 5270.4,1063.1 5287.8,1063.1 5305.3,1063.1 
	5322.7,1063.1 5340.1,1063.1 5357.6,1063.1 5375,1063.1 5392.4,1063.1 5409.9,1063.1 5427.3,1063.1 5444.7,1063.1 5462.1,1063.1 
	5479.6,1063.1 5497,1063.1 5514.4,1063.1 5531.9,1063.1 5549.3,1063.1 5566.7,1063.1 5584.1,1063.1 5601.6,1063.1 5619,1063.1 
	5636.4,1063.1 5653.9,1063.1 5671.3,1063.1 5688.7,1063.1 5706.2,1063.1 5723.6,1063.1 5741,1063.1 "/>
<polyline class="st0" points="6783.5,1063.1 6783.5,1034.7 6783.5,1006.3 6783.5,977.9 6783.5,949.5 6783.5,921.1 6783.5,892.7 
	6783.5,864.3 6783.5,836 6783.5,807.5 6783.5,779.2 6783.5,750.8 6783.5,722.4 6783.5,694 6783.5,665.6 6783.5,637.2 6783.5,608.8 
	6783.5,580.4 6783.5,552 6783.5,523.6 6783.5,495.2 6783.5,466.9 6783.5,438.5 6783.5,410.1 6783.5,381.7 6783.5,353.3 
	6783.5,324.9 6783.5,296.5 6783.5,268.1 6783.5,239.7 6783.5,211.3 6783.5,182.9 6783.5,154.5 6847.5,211.2 6911.5,267.9 
	6975.5,324.6 7039.5,381.3 7103.5,438 7167.5,494.7 7231.5,551.4 7295.5,608 7311.6,593.8 7327.7,579.5 7343.8,565.3 7359.9,551 
	7376,536.8 7392.1,522.5 7408.2,508.3 7424.3,494 7440.4,479.8 7456.4,465.5 7472.5,451.3 7488.6,437 7504.7,422.8 7520.8,408.5 
	7536.9,394.2 7553,380 7569.1,365.7 7585.2,351.5 7601.3,337.2 7617.4,323 7633.4,308.7 7649.5,294.5 7665.6,280.2 7681.7,266 
	7697.8,251.7 7713.9,237.5 7730,223.2 7746.1,208.9 7762.2,194.7 7778.3,180.4 7794.4,166.2 7810.4,151.9 7810.4,265.8 
	7810.4,379.7 7810.4,493.6 7810.4,607.5 7810.4,721.4 7810.4,835.3 7810.4,949.2 7810.4,1063.1 "/>
</svg>
