# WaveFront *.obj file (generated by Cinema 4D)

v 61.80656814575195 -18.7381534576416 -0.07566367089748
v 63.56155014038086 -19.61897850036621 -0.45538926124573
v 68.13677978515625 -19.05610847473145 33.78189468383789
v 70.00697326660156 -19.72836875915527 33.53347015380859
v 69.33765411376953 -19.57577323913574 52.02262878417969
v 71.26300048828125 -20.13138389587402 52.00641250610352
v 68.68488311767578 -20.03415107727051 61.09885406494141
v 70.61134338378906 -20.53483200073242 61.3233642578125
v 67.97829437255859 -20.29091262817383 64.74884796142578
v 69.87308502197266 -20.77499008178711 65.17829132080078
v 67.03902435302734 -20.56482124328613 67.86420440673828
v 68.87912750244141 -21.03844451904297 68.49922180175781
v 65.89250946044922 -20.85367393493652 70.45040130615234
v 67.63406372070312 -21.32472991943359 71.32506561279297
v 64.56253051757812 -21.15546226501465 72.53414916992188
v 66.14413452148438 -21.6331844329834 73.67347717285156
v 63.07056045532227 -21.468505859375 74.1494140625
v 64.41788482666016 -21.96282196044922 75.55486297607422
v 61.42953109741211 -21.79205513000488 75.33629608154297
v 62.4724235534668 -22.31171989440918 76.97348785400391
v 59.6402473449707 -22.12664413452148 76.13323211669922
v 60.33696746826172 -22.67667770385742 77.93528747558594
v 57.69692230224609 -22.47353744506836 76.56781768798828
v 58.04733276367188 -23.05376052856445 78.45703125
v 55.59775543212891 -22.83358001708984 76.65601348876953
v 55.63534164428711 -23.439453125 78.567138671875
v 53.35026931762695 -23.2065486907959 76.4088134765625
v 53.12350463867188 -23.8313102722168 78.29897308349609
v 50.96946716308594 -23.59127426147461 75.83843231201172
v 50.5268440246582 -24.22783279418945 77.68470001220703
v 48.49047088623047 -23.98434257507324 74.9659423828125
v 47.84026336669922 -24.6297664642334 76.74761962890625
v 43.21237182617188 -24.80072593688965 72.35347747802734
v 42.34297180175781 -25.43396377563477 74.04364013671875
v 37.72678375244141 -25.63249397277832 68.76631927490234
v 36.66103744506836 -26.24575424194336 70.34710693359375
v 29.3372745513916 -26.88840293884277 61.90696334838867
v 28.0894889831543 -27.45155906677246 63.36880874633789
v 18.54938888549805 -28.5111026763916 50.96145629882812
v 17.13217735290527 -28.99227333068848 52.29170227050781
v 9.12497138977051 -29.98811149597168 39.27928924560547
v 7.56675243377686 -30.38622856140137 40.47153091430664
v 3.54656338691711 -30.94355964660645 30.9133472442627
v 1.86701464653015 -31.28931999206543 31.94789505004883
v -0.30885851383209 -31.72640991210938 23.55872344970703
v -2.1141254901886 -32.03234481811523 24.37590599060059
v -1.71361875534058 -32.13114166259766 19.56086730957031
v -3.62138986587524 -32.42446517944336 20.10482215881348
v -2.0198221206665 -32.29106140136719 17.95907974243164
v -3.98741316795349 -32.58884429931641 18.20989227294922
v -2.06567430496216 -32.42350769042969 16.64227676391602
v -4.05122756958008 -32.72771835327148 16.51430130004883
v -1.87428486347198 -32.53089141845703 15.67661762237549
v -3.75969672203064 -32.83600616455078 14.99626636505127
v -1.50533103942871 -32.62053298950195 15.05008888244629
v -3.02311682701111 -32.90371704101562 13.71216583251953
v -0.94785970449448 -32.69290924072266 14.64688014984131
v -1.82241356372833 -32.92771148681641 12.82218360900879
v -0.04235215857625 -32.73419189453125 14.41583824157715
v -0.28707903623581 -32.91914749145508 12.42184162139893
v 1.11679327487946 -32.71767807006836 14.42584037780762
v 1.34912765026093 -32.85490036010742 12.43266677856445
v 2.32144379615784 -32.62753677368164 14.69243717193604
v 2.94138479232788 -32.70732116699219 12.78347587585449
v 3.56246662139893 -32.46562194824219 15.22146320343018
v 4.49165630340576 -32.48139572143555 13.44373989105225
v 4.83582973480225 -32.2314338684082 16.01717948913574
v 5.99680614471436 -32.18447875976562 14.38450908660889
v 6.13052368164062 -31.92664909362793 17.07697486877441
v 7.46067523956299 -31.82173538208008 15.58369922637939
v 7.42275667190552 -31.55853271484375 18.38035774230957
v 8.89988803863525 -31.39274787902832 17.0371150970459
v 10.03403282165527 -30.6225757598877 21.74741363525391
v 11.6414737701416 -30.3731517791748 20.57831764221191
v 12.56447696685791 -29.4698314666748 25.96212577819824
v 14.2693977355957 -29.13419151306152 24.9668083190918
v 16.15610885620117 -27.38072967529297 33.70337295532227
v 17.92519569396973 -26.9377555847168 32.87628173828125
v 20.36431884765625 -24.08386611938477 46.0976676940918
v 22.16425895690918 -23.50521469116211 45.43826293945312
v 24.34815216064453 -19.45231437683105 63.78810501098633
v 26.14012336730957 -18.70933151245117 63.29197692871094
v 26.48491859436035 -14.65539360046387 82.45534515380859
v 28.23852920532227 -13.74899101257324 82.12020111083984
v 26.5627326965332 -10.98756790161133 97.03949737548828
v 28.26504707336426 -9.94860649108887 96.86326599121094
v 25.52326965332031 -8.48230457305908 107.23966217041016
v 27.16613388061523 -7.33717966079712 107.23112487792969
v 23.43911552429199 -6.28547239303589 116.45182800292969
v 24.99689292907715 -5.03796148300171 116.62276458740234
v 21.43707466125488 -5.04547452926636 121.84939575195312
v 22.89274978637695 -3.71667289733887 122.20726013183594
v 18.90405464172363 -4.00697135925293 126.57380676269531
v 20.2362117767334 -2.6066517829895 127.09810638427734
v 17.45164489746094 -3.57852673530579 128.62391662597656
v 18.66965484619141 -2.13273477554321 129.28132629394531
v 15.85383605957031 -3.2083957195282 130.47752380371094
v 16.95614814758301 -1.7242329120636 131.24528503417969
v 14.11740493774414 -2.90259313583374 132.11225891113281
v 15.08174610137939 -1.38197708129883 132.98762512207031
v 12.23857688903809 -2.66378331184387 133.51895141601562
v 13.04305458068848 -1.11014950275421 134.49285888671875
v 10.21207714080811 -2.49461698532104 134.68865966796875
v 10.83818054199219 -0.91294515132904 135.74522399902344
v 8.03105735778809 -2.39793348312378 135.61198425292969
v 8.46680450439453 -0.79437094926834 136.72941589355469
v 5.687584400177 -2.37694907188416 136.27824401855469
v 5.92969036102295 -0.75805658102036 137.43144226074219
v 3.17356371879578 -2.43532967567444 136.67512512207031
v 3.22776436805725 -0.80718219280243 137.83891296386719
v 0.48202672600746 -2.57723832130432 136.7890625
v 0.36082643270493 -0.94443100690842 137.94070434570312
v -3.78726720809937 -2.81856346130371 136.3697509765625
v -4.06506013870239 -1.1764817237854 137.47975158691406
v -5.55050706863403 -2.88600611686707 135.90411376953125
v -5.95717620849609 -1.24144279956818 136.96885681152344
v -7.09914541244507 -2.92141437530518 135.27230834960938
v -7.62123250961304 -1.27267301082611 136.27914428710938
v -8.43253135681152 -2.9262969493866 134.48403930664062
v -9.07200241088867 -1.27148127555847 135.41038513183594
v -9.56283760070801 -2.90242290496826 133.54391479492188
v -10.31143283843994 -1.23891723155975 134.36740112304688
v -10.50228404998779 -2.85124969482422 132.45370483398438
v -11.34142780303955 -1.17634069919586 133.157958984375
v -11.26107883453369 -2.77388119697571 131.21296691894531
v -12.16589832305908 -1.08546662330627 131.79190063476562
v -11.84649276733398 -2.67122673988342 129.82115173339844
v -12.7916955947876 -0.96820366382599 130.27928161621094
v -12.26359462738037 -2.54422760009766 128.279296875
v -13.22787189483643 -0.82642805576324 128.62850952148438
v -12.51665687561035 -2.39398598670959 126.59048461914062
v -13.48427772521973 -0.66185617446899 126.84599304199219
v -12.6098575592041 -2.22254037857056 124.76707458496094
v -13.57085514068604 -0.47526741027832 124.92881774902344
v -12.33904075622559 -1.81685674190521 120.69029998779297
v -13.26864433288574 -0.04649211093783 120.75457000732422
v -11.50000095367432 -1.34179019927979 116.12477874755859
v -12.38535308837891 0.45196691155434 116.10568237304688
v -9.28949546813965 -0.5215055346489 108.42697906494141
v -10.10454559326172 1.30340397357941 108.34121704101562
v -2.13326859474182 1.36406826972961 90.49352264404297
v -2.808021068573 3.24344539642334 90.38105010986328
v 17.77410125732422 5.04674100875854 48.20708084106445
v 17.39484214782715 7.01022958755493 48.16116333007812
v 35.90160751342773 6.54527759552002 0.80899524688721
v 35.86688995361328 8.54633331298828 0.77046835422516
v 41.38607788085938 5.11985683441162 -23.8082275390625
v 41.54533386230469 7.10818719863892 -23.97868728637695
v 44.22099685668945 2.72012782096863 -40.3445930480957
v 44.51794815063477 4.67251443862915 -40.67502212524414
v 45.66852188110352 0.22769133746624 -50.66703796386719
v 46.06058502197266 2.12393760681152 -51.17838287353516
v 46.42104721069336 -1.86556732654572 -56.56438827514648
v 46.87955856323242 -0.04680373519659 -57.26692199707031
v 46.81216049194336 -3.31328272819519 -59.54393768310547
v 47.32181167602539 -1.60014379024506 -60.45014953613281
v 47.14887237548828 -4.78163194656372 -61.75882720947266
v 47.71253967285156 -3.21493172645569 -62.87505722045898
v 47.29583358764648 -5.47669219970703 -62.5330696105957
v 47.90712356567383 -4.08026695251465 -63.83333587646484
v 47.43646621704102 -6.1571888923645 -63.1142692565918
v 48.10260772705078 -4.96634101867676 -64.58439636230469
v 47.56743621826172 -6.7967324256897 -63.49483489990234
v 48.30935287475586 -5.89476203918457 -65.12931823730469
v 47.68990325927734 -7.39035272598267 -63.69335556030273
v 48.53321075439453 -6.86571788787842 -65.44300842285156
v 47.81018829345703 -7.95462322235107 -63.73249435424805
v 48.77488708496094 -7.85785436630249 -65.49630737304688
v 47.94109344482422 -8.52569389343262 -63.61581802368164
v 49.02858734130859 -8.83023929595947 -65.27912902832031
v 48.09558486938477 -9.13180351257324 -63.31861877441406
v 49.28837585449219 -9.74985122680664 -64.80967712402344
v 48.28050231933594 -9.77571392059326 -62.80941772460938
v 49.55442428588867 -10.60914897918701 -64.11293029785156
v 48.49773025512695 -10.44451332092285 -62.06843948364258
v 49.83187103271484 -11.41626071929932 -63.20215606689453
v 48.74393463134766 -11.11555862426758 -61.09994506835938
v 50.13106918334961 -12.18904972076416 -62.06658554077148
v 49.35061264038086 -12.46950340270996 -58.39225006103516
v 50.79544830322266 -13.6074104309082 -59.18319320678711
v 50.10409927368164 -13.74986839294434 -54.72761535644531
v 51.60015869140625 -14.91365909576416 -55.36941909790039
v 51.57400894165039 -15.48232555389404 -47.35335540771484
v 53.12874603271484 -16.6292667388916 -47.87348175048828
v 55.14471817016602 -17.6663646697998 -29.91644287109375
v 56.78668975830078 -18.72161865234375 -30.35276222229004
# 186 vertices

vn 0.43176245689392 0.89904874563217 -0.0727497190237
vn 0.34594649076462 0.93772393465042 -0.03154129162431
vn 0.28437855839729 0.95812577009201 0.03352385014296
vn 0.24555853009224 0.96554934978485 0.08611322194338
vn 0.21882046759129 0.96761494874954 0.125852689147
vn 0.19268505275249 0.96771508455276 0.16248075664043
vn 0.15920330584049 0.96633011102676 0.20213955640793
vn 0.11571277678013 0.96337056159973 0.24192498624325
vn 0.06175874173641 0.95892077684402 0.27686959505081
vn 0.00063587340992 0.95348078012466 0.30145317316055
vn -0.06110278517008 0.94792729616165 0.31257039308548
vn -0.11680995672941 0.94314187765121 0.311189442873
vn -0.16268579661846 0.93963760137558 0.30102252960205
vn -0.1981310993433 0.9375147819519 0.28602457046509
vn -0.22434328496456 0.93670850992203 0.2687885761261
vn -0.24579164385796 0.9374588727951 0.24649013578892
vn -0.26262354850769 0.94031190872192 0.21643100678921
vn -0.26940569281578 0.94591826200485 0.18071863055229
vn -0.26284110546112 0.9548887014389 0.13821044564247
vn -0.24290427565575 0.96578222513199 0.09089642763138
vn -0.21730852127075 0.97492045164108 0.04803226143122
vn -0.19498735666275 0.98072153329849 0.01285086944699
vn -0.17829151451588 0.98379439115524 -0.01899415254593
vn -0.16674898564816 0.9848438501358 -0.04772213473916
vn -0.15695060789585 0.98493874073029 -0.07254108786583
vn -0.13999447226524 0.98512649536133 -0.09963599592447
vn -0.10317298769951 0.98635119199753 -0.12832252681255
vn -0.05068459734321 0.98920011520386 -0.13752911984921
vn -0.01500577200204 0.99287337064743 -0.11822539567947
vn -0.01637995243073 0.99571233987808 -0.09104207158089
vn -0.04706387594342 0.99613606929779 -0.07414770126343
vn -0.08759212493896 0.99371433258057 -0.06970937550068
vn -0.12372617423534 0.98960512876511 -0.07330448925495
vn -0.15387301146984 0.98476958274841 -0.08094394207001
vn -0.17859746515751 0.97981697320938 -0.08978658914566
vn -0.20357936620712 0.97391939163208 -0.10018197447062
vn -0.23253348469734 0.9660661816597 -0.11244681477547
vn -0.26460283994675 0.9563050866127 -0.12436196953058
vn -0.3041182756424 0.94291573762894 -0.1357274055481
vn -0.35591387748718 0.92266941070557 -0.14834560453892
vn -0.41728392243385 0.89343976974487 -0.16625136137009
vn -0.47645765542984 0.8574161529541 -0.19448812305927
vn -0.52112740278244 0.82084441184998 -0.2337534725666
vn -0.54885649681091 0.78595662117004 -0.28465536236763
vn -0.56035405397415 0.75184887647629 -0.34745731949806
vn -0.55452084541321 0.72008275985718 -0.41711810231209
vn -0.53398036956787 0.69287580251694 -0.48454931378365
vn -0.50684100389481 0.67230552434921 -0.53955298662186
vn -0.47443589568138 0.65583908557892 -0.58718448877335
vn -0.43212044239044 0.63966393470764 -0.63569015264511
vn -0.37957942485809 0.62424123287201 -0.68281936645508
vn -0.31749194860458 0.6102067232132 -0.7258420586586
vn -0.24782037734985 0.59811359643936 -0.76213198900223
vn -0.17358693480492 0.58827739953995 -0.78980839252472
vn -0.09825853258371 0.58062237501144 -0.80822205543518
vn -0.00450936937705 0.5751838684082 -0.81801176071167
vn 0.12258318811655 0.57176661491394 -0.81120669841766
vn 0.24839197099209 0.56898605823517 -0.78393644094467
vn 0.36321809887886 0.56662583351135 -0.73959970474243
vn 0.48222184181213 0.56230211257935 -0.67177259922028
vn 0.5956267118454 0.5552476644516 -0.5804557800293
vn 0.69331592321396 0.54529392719269 -0.47113430500031
vn 0.76871824264526 0.53299957513809 -0.35353034734726
vn 0.82077008485794 0.5193567276001 -0.23791825771332
vn 0.85281014442444 0.50532168149948 -0.13177594542503
vn 0.87000489234924 0.49151694774628 -0.03876276314259
vn 0.87796074151993 0.47542214393616 0.05620275437832
vn 0.87670451402664 0.45396688580513 0.159069865942
vn 0.86785292625427 0.4278404712677 0.25255450606346
vn 0.85712230205536 0.38833627104759 0.33843204379082
vn 0.85915273427963 0.30922681093216 0.4077196419239
vn 0.89922124147415 0.18036571145058 0.39858418703079
vn 0.95524138212204 0.0428953319788 0.29270100593567
vn 0.97765690088272 -0.05455433949828 0.20300441980362
vn 0.9773353934288 -0.11351447552443 0.1786897033453
vn 0.97246241569519 -0.14937633275986 0.17889533936977
vn 0.96621239185333 -0.16478112339973 0.19819395244122
vn 0.95895856618881 -0.16211567819118 0.23263058066368
vn 0.95001477003098 -0.14276371896267 0.27765175700188
vn 0.93981999158859 -0.11117473244667 0.32307663559914
vn 0.92716431617737 -0.06472074240446 0.36902251839638
vn 0.90829855203629 0.00709970714524 0.41826224327087
vn 0.8811719417572 0.10924731940031 0.4600011408329
vn 0.84598869085312 0.23651288449764 0.47787526249886
vn 0.8068568110466 0.36915984749794 0.46119743585587
vn 0.76990866661072 0.48420587182045 0.41567447781563
vn 0.73899066448212 0.57128268480301 0.35711190104485
vn 0.71419823169708 0.63312709331512 0.29844763875008
vn 0.69034039974213 0.68448662757874 0.2343248128891
vn 0.66308856010437 0.73089545965195 0.16157180070877
vn 0.63299375772476 0.76874965429306 0.09133930504322
vn 0.59100633859634 0.80639088153839 0.02110153250396
vn 0.52247613668442 0.85133707523346 -0.04736962541938
# 93 normals

vt 0 1 0
vt 0 0.98924732208252 0
vt 1 0.98924732208252 0
vt 1 1 0
vt 0 0.97849464416504 0
vt 1 0.97849464416504 0
vt 0 0.96774196624756 0
vt 1 0.96774196624756 0
vt 0 0.95698922872543 0
vt 1 0.95698922872543 0
vt 0 0.94623655080795 0
vt 1 0.94623655080795 0
vt 0 0.93548387289047 0
vt 1 0.93548387289047 0
vt 0 0.92473119497299 0
vt 1 0.92473119497299 0
vt 0 0.91397851705551 0
vt 1 0.91397851705551 0
vt 0 0.90322583913803 0
vt 1 0.90322583913803 0
vt 0 0.89247310161591 0
vt 1 0.89247310161591 0
vt 0 0.88172042369843 0
vt 1 0.88172042369843 0
vt 0 0.87096774578094 0
vt 1 0.87096774578094 0
vt 0 0.86021506786346 0
vt 1 0.86021506786346 0
vt 0 0.84946238994598 0
vt 1 0.84946238994598 0
vt 0 0.8387097120285 0
vt 1 0.8387097120285 0
vt 0 0.82795703411102 0
vt 1 0.82795703411102 0
vt 0 0.8172042965889 0
vt 1 0.8172042965889 0
vt 0 0.80645161867142 0
vt 1 0.80645161867142 0
vt 0 0.79569888114929 0
vt 1 0.79569888114929 0
vt 0 0.78494620323181 0
vt 1 0.78494620323181 0
vt 0 0.77419352531433 0
vt 1 0.77419352531433 0
vt 0 0.76344084739685 0
vt 1 0.76344084739685 0
vt 0 0.75268816947937 0
vt 1 0.75268816947937 0
vt 0 0.74193549156189 0
vt 1 0.74193549156189 0
vt 0 0.73118281364441 0
vt 1 0.73118281364441 0
vt 0 0.72043013572693 0
vt 1 0.72043013572693 0
vt 0 0.70967745780945 0
vt 1 0.70967745780945 0
vt 0 0.69892477989197 0
vt 1 0.69892477989197 0
vt 0 0.68817210197449 0
vt 1 0.68817210197449 0
vt 0 0.67741942405701 0
vt 1 0.67741942405701 0
vt 0 0.66666674613953 0
vt 1 0.66666674613953 0
vt 0 0.65591406822205 0
vt 1 0.65591406822205 0
vt 0 0.64516139030457 0
vt 1 0.64516139030457 0
vt 0 0.63440871238708 0
vt 1 0.63440871238708 0
vt 0 0.6236560344696 0
vt 1 0.6236560344696 0
vt 0 0.61290335655212 0
vt 1 0.61290335655212 0
vt 0 0.60215067863464 0
vt 1 0.60215067863464 0
vt 0 0.59139800071716 0
vt 1 0.59139800071716 0
vt 0 0.58064532279968 0
vt 1 0.58064532279968 0
vt 0 0.5698926448822 0
vt 1 0.5698926448822 0
vt 0 0.55913996696472 0
vt 1 0.55913996696472 0
vt 0 0.54838728904724 0
vt 1 0.54838728904724 0
vt 0 0.53763461112976 0
vt 1 0.53763461112976 0
vt 0 0.52688193321228 0
vt 1 0.52688193321228 0
vt 0 0.5161292552948 0
vt 1 0.5161292552948 0
vt 0 0.50537657737732 0
vt 1 0.50537657737732 0
vt 0 0.49462389945984 0
vt 1 0.49462389945984 0
vt 0 0.48387122154236 0
vt 1 0.48387122154236 0
vt 0 0.47311854362488 0
vt 1 0.47311854362488 0
vt 0 0.4623658657074 0
vt 1 0.4623658657074 0
vt 0 0.45161318778992 0
vt 1 0.45161318778992 0
vt 0 0.44086050987244 0
vt 1 0.44086050987244 0
vt 0 0.43010783195496 0
vt 1 0.43010783195496 0
vt 0 0.41935515403748 0
vt 1 0.41935515403748 0
vt 0 0.40860247612 0
vt 1 0.40860247612 0
vt 0 0.39784979820251 0
vt 1 0.39784979820251 0
vt 0 0.38709712028503 0
vt 1 0.38709712028503 0
vt 0 0.37634444236755 0
vt 1 0.37634444236755 0
vt 0 0.36559176445007 0
vt 1 0.36559176445007 0
vt 0 0.35483908653259 0
vt 1 0.35483908653259 0
vt 0 0.34408640861511 0
vt 1 0.34408640861511 0
vt 0 0.33333373069763 0
vt 1 0.33333373069763 0
vt 0 0.32258105278015 0
vt 1 0.32258105278015 0
vt 0 0.31182837486267 0
vt 1 0.31182837486267 0
vt 0 0.30107569694519 0
vt 1 0.30107569694519 0
vt 0 0.29032301902771 0
vt 1 0.29032301902771 0
vt 0 0.27957034111023 0
vt 1 0.27957034111023 0
vt 0 0.26881766319275 0
vt 1 0.26881766319275 0
vt 0 0.25806498527527 0
vt 1 0.25806498527527 0
vt 0 0.24731230735779 0
vt 1 0.24731230735779 0
vt 0 0.23655962944031 0
vt 1 0.23655962944031 0
vt 0 0.22580695152283 0
vt 1 0.22580695152283 0
vt 0 0.21505427360535 0
vt 1 0.21505427360535 0
vt 0 0.20430159568787 0
vt 1 0.20430159568787 0
vt 0 0.19354891777039 0
vt 1 0.19354891777039 0
vt 0 0.18279623985291 0
vt 1 0.18279623985291 0
vt 0 0.17204356193542 0
vt 1 0.17204356193542 0
vt 0 0.16129088401794 0
vt 1 0.16129088401794 0
vt 0 0.15053820610046 0
vt 1 0.15053820610046 0
vt 0 0.13978552818298 0
vt 1 0.13978552818298 0
vt 0 0.1290328502655 0
vt 1 0.1290328502655 0
vt 0 0.11828017234802 0
vt 1 0.11828017234802 0
vt 0 0.10752749443054 0
vt 1 0.10752749443054 0
vt 0 0.09677481651306 0
vt 1 0.09677481651306 0
vt 0 0.08602213859558 0
vt 1 0.08602213859558 0
vt 0 0.0752694606781 0
vt 1 0.0752694606781 0
vt 0 0.06451678276062 0
vt 1 0.06451678276062 0
vt 0 0.05376410484314 0
vt 1 0.05376410484314 0
vt 0 0.04301142692566 0
vt 1 0.04301142692566 0
vt 0 0.03225874900818 0
vt 1 0.03225874900818 0
vt 0 0.0215060710907 0
vt 1 0.0215060710907 0
vt 0 0.01075339317322 0
vt 1 0.01075339317322 0
vt 0 0 0
vt 1 0 0
# 188 texture coordinates

o Sweep
usemtl default
f 1/1/1 3/2/2 4/3/2 2/4/1
f 3/2/2 5/5/3 6/6/3 4/3/2
f 5/5/3 7/7/4 8/8/4 6/6/3
f 7/7/4 9/9/5 10/10/5 8/8/4
f 9/9/5 11/11/6 12/12/6 10/10/5
f 11/11/6 13/13/7 14/14/7 12/12/6
f 13/13/7 15/15/8 16/16/8 14/14/7
f 15/15/8 17/17/9 18/18/9 16/16/8
f 17/17/9 19/19/10 20/20/10 18/18/9
f 19/19/10 21/21/11 22/22/11 20/20/10
f 21/21/11 23/23/12 24/24/12 22/22/11
f 23/23/12 25/25/13 26/26/13 24/24/12
f 25/25/13 27/27/14 28/28/14 26/26/13
f 27/27/14 29/29/15 30/30/15 28/28/14
f 29/29/15 31/31/16 32/32/16 30/30/15
f 31/31/16 33/33/17 34/34/17 32/32/16
f 33/33/17 35/35/18 36/36/18 34/34/17
f 35/35/18 37/37/19 38/38/19 36/36/18
f 37/37/19 39/39/20 40/40/20 38/38/19
f 39/39/20 41/41/21 42/42/21 40/40/20
f 41/41/21 43/43/22 44/44/22 42/42/21
f 43/43/22 45/45/23 46/46/23 44/44/22
f 45/45/23 47/47/24 48/48/24 46/46/23
f 47/47/24 49/49/25 50/50/25 48/48/24
f 49/49/25 51/51/26 52/52/26 50/50/25
f 51/51/26 53/53/27 54/54/27 52/52/26
f 53/53/27 55/55/28 56/56/28 54/54/27
f 55/55/28 57/57/29 58/58/29 56/56/28
f 57/57/29 59/59/30 60/60/30 58/58/29
f 59/59/30 61/61/31 62/62/31 60/60/30
f 61/61/31 63/63/32 64/64/32 62/62/31
f 63/63/32 65/65/33 66/66/33 64/64/32
f 65/65/33 67/67/34 68/68/34 66/66/33
f 67/67/34 69/69/35 70/70/35 68/68/34
f 69/69/35 71/71/36 72/72/36 70/70/35
f 71/71/36 73/73/37 74/74/37 72/72/36
f 73/73/37 75/75/38 76/76/38 74/74/37
f 75/75/38 77/77/39 78/78/39 76/76/38
f 77/77/39 79/79/40 80/80/40 78/78/39
f 79/79/40 81/81/41 82/82/41 80/80/40
f 81/81/41 83/83/42 84/84/42 82/82/41
f 83/83/42 85/85/43 86/86/43 84/84/42
f 85/85/43 87/87/44 88/88/44 86/86/43
f 87/87/44 89/89/45 90/90/45 88/88/44
f 89/89/45 91/91/46 92/92/46 90/90/45
f 91/91/46 93/93/47 94/94/47 92/92/46
f 93/93/47 95/95/48 96/96/48 94/94/47
f 95/95/48 97/97/49 98/98/49 96/96/48
f 97/97/49 99/99/50 100/100/50 98/98/49
f 99/99/50 101/101/51 102/102/51 100/100/50
f 101/101/51 103/103/52 104/104/52 102/102/51
f 103/103/52 105/105/53 106/106/53 104/104/52
f 105/105/53 107/107/54 108/108/54 106/106/53
f 107/107/54 109/109/55 110/110/55 108/108/54
f 109/109/55 111/111/56 112/112/56 110/110/55
f 111/111/56 113/113/57 114/114/57 112/112/56
f 113/113/57 115/115/58 116/116/58 114/114/57
f 115/115/58 117/117/59 118/118/59 116/116/58
f 117/117/59 119/119/60 120/120/60 118/118/59
f 119/119/60 121/121/61 122/122/61 120/120/60
f 121/121/61 123/123/62 124/124/62 122/122/61
f 123/123/62 125/125/63 126/126/63 124/124/62
f 125/125/63 127/127/64 128/128/64 126/126/63
f 127/127/64 129/129/65 130/130/65 128/128/64
f 129/129/65 131/131/66 132/132/66 130/130/65
f 131/131/66 133/133/67 134/134/67 132/132/66
f 133/133/67 135/135/68 136/136/68 134/134/67
f 135/135/68 137/137/69 138/138/69 136/136/68
f 137/137/69 139/139/70 140/140/70 138/138/69
f 139/139/70 141/141/71 142/142/71 140/140/70
f 141/141/71 143/143/72 144/144/72 142/142/71
f 143/143/72 145/145/73 146/146/73 144/144/72
f 145/145/73 147/147/74 148/148/74 146/146/73
f 147/147/74 149/149/75 150/150/75 148/148/74
f 149/149/75 151/151/76 152/152/76 150/150/75
f 151/151/76 153/153/77 154/154/77 152/152/76
f 153/153/77 155/155/78 156/156/78 154/154/77
f 155/155/78 157/157/79 158/158/79 156/156/78
f 157/157/79 159/159/80 160/160/80 158/158/79
f 159/159/80 161/161/81 162/162/81 160/160/80
f 161/161/81 163/163/82 164/164/82 162/162/81
f 163/163/82 165/165/83 166/166/83 164/164/82
f 165/165/83 167/167/84 168/168/84 166/166/83
f 167/167/84 169/169/85 170/170/85 168/168/84
f 169/169/85 171/171/86 172/172/86 170/170/85
f 171/171/86 173/173/87 174/174/87 172/172/86
f 173/173/87 175/175/88 176/176/88 174/174/87
f 175/175/88 177/177/89 178/178/89 176/176/88
f 177/177/89 179/179/90 180/180/90 178/178/89
f 179/179/90 181/181/91 182/182/91 180/180/90
f 181/181/91 183/183/92 184/184/92 182/182/91
f 183/183/92 185/185/93 186/186/93 184/184/92
f 185/185/93 1/187/1 2/188/1 186/186/93

